<svg xmlns="http://www.w3.org/2000/svg" xmlns:xlink="http://www.w3.org/1999/xlink" width="500" zoomAndPan="magnify" viewBox="0 0 375 374.999991" height="500" preserveAspectRatio="xMidYMid meet" version="1.0"><defs><g/><clipPath id="270affac17"><path d="M 43.058594 131.25 L 280.808594 131.25 L 280.808594 243.75 L 43.058594 243.75 Z M 43.058594 131.25 " clip-rule="nonzero"/></clipPath><clipPath id="b728f16f3b"><path d="M 60.308594 131.25 L 263.722656 131.25 C 268.296875 131.25 272.683594 133.066406 275.917969 136.304688 C 279.15625 139.539062 280.972656 143.925781 280.972656 148.5 L 280.972656 226.5 C 280.972656 231.074219 279.15625 235.460938 275.917969 238.695312 C 272.683594 241.933594 268.296875 243.75 263.722656 243.75 L 60.308594 243.75 C 55.734375 243.75 51.34375 241.933594 48.109375 238.695312 C 44.875 235.460938 43.058594 231.074219 43.058594 226.5 L 43.058594 148.5 C 43.058594 143.925781 44.875 139.539062 48.109375 136.304688 C 51.34375 133.066406 55.734375 131.25 60.308594 131.25 Z M 60.308594 131.25 " clip-rule="nonzero"/></clipPath></defs><g clip-path="url(#270affac17)"><g clip-path="url(#b728f16f3b)"><path stroke-linecap="butt" transform="matrix(0.75, 0, 0, 0.75, 43.057636, 131.250651)" fill="none" stroke-linejoin="miter" d="M 23.001278 -0.000868508 L 294.220046 -0.000868508 C 300.319005 -0.000868508 306.167964 2.421007 310.480464 6.738715 C 314.798173 11.051216 317.220048 16.900174 317.220048 22.999133 L 317.220048 126.99914 C 317.220048 133.098099 314.798173 138.947057 310.480464 143.259558 C 306.167964 147.577266 300.319005 149.999141 294.220046 149.999141 L 23.001278 149.999141 C 16.90232 149.999141 11.048153 147.577266 6.735652 143.259558 C 2.423152 138.947057 0.0012769 133.098099 0.0012769 126.99914 L 0.0012769 22.999133 C 0.0012769 16.900174 2.423152 11.051216 6.735652 6.738715 C 11.048153 2.421007 16.90232 -0.000868508 23.001278 -0.000868508 Z M 23.001278 -0.000868508 " stroke="#ff5711" stroke-width="6" stroke-opacity="1" stroke-miterlimit="4"/></g></g><path stroke-linecap="butt" transform="matrix(0.75, 0, 0, 0.75, 63.324917, 188.964948)" fill="none" stroke-linejoin="miter" d="M 11.24907 1.499862 L 71.118865 1.499862 " stroke="#ff5711" stroke-width="3" stroke-opacity="1" stroke-miterlimit="4"/><path stroke-linecap="round" transform="matrix(0.75, 0, 0, 0.75, 63.324917, 188.964948)" fill="none" stroke-linejoin="round" d="M 1.499069 1.499862 C 1.499069 -0.984514 3.514694 -3.000139 5.999069 -3.000139 C 8.483444 -3.000139 10.49907 -0.984514 10.49907 1.499862 C 10.49907 3.984237 8.483444 5.999862 5.999069 5.999862 C 3.514694 5.999862 1.499069 3.984237 1.499069 1.499862 " stroke="#ff5711" stroke-width="3" stroke-opacity="1" stroke-miterlimit="4"/><path stroke-linecap="round" transform="matrix(0.75, 0, 0, 0.75, 63.324917, 188.964948)" fill="none" stroke-linejoin="round" d="M 80.868866 1.499862 C 80.868866 3.984237 78.853241 5.999862 76.368865 5.999862 C 73.879282 5.999862 71.868865 3.984237 71.868865 1.499862 C 71.868865 -0.984514 73.879282 -3.000139 76.368865 -3.000139 C 78.853241 -3.000139 80.868866 -0.984514 80.868866 1.499862 " stroke="#ff5711" stroke-width="3" stroke-opacity="1" stroke-miterlimit="4"/><path stroke-linecap="butt" transform="matrix(0.75, 0, 0, 0.75, 63.324917, 210.94106)" fill="none" stroke-linejoin="miter" d="M 11.24907 13.214005 L 35.327196 13.214005 C 38.561571 13.214005 41.181363 10.594213 41.181363 7.354629 C 41.181363 4.120254 43.806363 1.500462 47.040739 1.500462 L 71.118865 1.500462 " stroke="#ff5711" stroke-width="3" stroke-opacity="1" stroke-miterlimit="4"/><path stroke-linecap="round" transform="matrix(0.75, 0, 0, 0.75, 63.324917, 210.94106)" fill="none" stroke-linejoin="round" d="M 1.499069 13.214005 C 1.499069 10.729629 3.514694 8.714004 5.999069 8.714004 C 8.483444 8.714004 10.49907 10.729629 10.49907 13.214005 C 10.49907 15.69838 8.483444 17.714005 5.999069 17.714005 C 3.514694 17.714005 1.499069 15.69838 1.499069 13.214005 " stroke="#ff5711" stroke-width="3" stroke-opacity="1" stroke-miterlimit="4"/><path stroke-linecap="round" transform="matrix(0.75, 0, 0, 0.75, 63.324917, 210.94106)" fill="none" stroke-linejoin="round" d="M 80.868866 1.500462 C 80.868866 3.984837 78.853241 6.000462 76.368865 6.000462 C 73.879282 6.000462 71.868865 3.984837 71.868865 1.500462 C 71.868865 -0.983913 73.879282 -2.999538 76.368865 -2.999538 C 78.853241 -2.999538 80.868866 -0.983913 80.868866 1.500462 " stroke="#ff5711" stroke-width="3" stroke-opacity="1" stroke-miterlimit="4"/><path stroke-linecap="butt" transform="matrix(0.75, 0, 0, 0.75, 63.324917, 155.499878)" fill="none" stroke-linejoin="miter" d="M 11.24907 1.500163 L 33.525113 1.500163 C 37.75428 1.500163 41.181363 4.927247 41.181363 9.161622 C 41.181363 13.390789 44.613655 16.817872 48.842822 16.817872 L 71.118865 16.817872 " stroke="#ff5711" stroke-width="3" stroke-opacity="1" stroke-miterlimit="4"/><path stroke-linecap="round" transform="matrix(0.75, 0, 0, 0.75, 63.324917, 155.499878)" fill="none" stroke-linejoin="round" d="M 1.499069 1.500163 C 1.499069 -0.984212 3.514694 -2.999837 5.999069 -2.999837 C 8.483444 -2.999837 10.49907 -0.984212 10.49907 1.500163 C 10.49907 3.984538 8.483444 6.000163 5.999069 6.000163 C 3.514694 6.000163 1.499069 3.984538 1.499069 1.500163 " stroke="#ff5711" stroke-width="3" stroke-opacity="1" stroke-miterlimit="4"/><path stroke-linecap="round" transform="matrix(0.75, 0, 0, 0.75, 63.324917, 155.499878)" fill="none" stroke-linejoin="round" d="M 80.868866 16.817872 C 80.868866 19.302248 78.853241 21.317873 76.368865 21.317873 C 73.879282 21.317873 71.868865 19.302248 71.868865 16.817872 C 71.868865 14.333497 73.879282 12.317872 76.368865 12.317872 C 78.853241 12.317872 80.868866 14.333497 80.868866 16.817872 " stroke="#ff5711" stroke-width="3" stroke-opacity="1" stroke-miterlimit="4"/><g fill="#ff5711" fill-opacity="1"><g transform="translate(134.418483, 174.374989)"><g><path d="M 2.15625 0 L 2.15625 -14.28125 L 7.5625 -14.28125 C 8.445312 -14.28125 9.191406 -14.140625 9.796875 -13.859375 C 10.410156 -13.578125 10.875 -13.175781 11.1875 -12.65625 C 11.5 -12.144531 11.65625 -11.53125 11.65625 -10.8125 C 11.65625 -10.195312 11.484375 -9.632812 11.140625 -9.125 C 10.804688 -8.625 10.328125 -8.234375 9.703125 -7.953125 L 9.703125 -7.75 C 10.660156 -7.519531 11.382812 -7.09375 11.875 -6.46875 C 12.363281 -5.851562 12.609375 -5.078125 12.609375 -4.140625 C 12.609375 -2.816406 12.21875 -1.796875 11.4375 -1.078125 C 10.664062 -0.359375 9.515625 0 7.984375 0 Z M 7.484375 -8.28125 C 8.273438 -8.28125 8.890625 -8.484375 9.328125 -8.890625 C 9.765625 -9.304688 9.984375 -9.878906 9.984375 -10.609375 C 9.984375 -11.367188 9.769531 -11.9375 9.34375 -12.3125 C 8.925781 -12.695312 8.304688 -12.890625 7.484375 -12.890625 L 3.84375 -12.890625 L 3.84375 -8.28125 Z M 7.859375 -1.390625 C 9.890625 -1.390625 10.90625 -2.304688 10.90625 -4.140625 C 10.90625 -5.972656 9.890625 -6.890625 7.859375 -6.890625 L 3.84375 -6.890625 L 3.84375 -1.390625 Z M 7.859375 -1.390625 "/></g></g></g><g fill="#ff5711" fill-opacity="1"><g transform="translate(148.153349, 174.374989)"><g><path d="M 2.671875 -12.859375 C 2.335938 -12.859375 2.0625 -12.960938 1.84375 -13.171875 C 1.632812 -13.378906 1.53125 -13.644531 1.53125 -13.96875 C 1.53125 -14.300781 1.632812 -14.570312 1.84375 -14.78125 C 2.0625 -14.988281 2.335938 -15.09375 2.671875 -15.09375 C 3.015625 -15.09375 3.289062 -14.988281 3.5 -14.78125 C 3.707031 -14.570312 3.8125 -14.300781 3.8125 -13.96875 C 3.8125 -13.644531 3.707031 -13.378906 3.5 -13.171875 C 3.289062 -12.960938 3.015625 -12.859375 2.671875 -12.859375 Z M 1.875 0 L 1.875 -10.765625 L 3.46875 -10.765625 L 3.46875 0 Z M 1.875 0 "/></g></g></g><g fill="#ff5711" fill-opacity="1"><g transform="translate(153.493059, 174.374989)"><g><path d="M 1.875 0 L 1.875 -15.09375 L 3.46875 -15.09375 L 3.46875 -6.28125 L 3.734375 -6.28125 L 7.734375 -10.765625 L 9.40625 -10.765625 L 9.40625 -10.546875 L 5.140625 -5.71875 L 9.8125 -0.25 L 9.8125 0 L 8.03125 0 L 3.734375 -4.984375 L 3.46875 -4.984375 L 3.46875 0 Z M 1.875 0 "/></g></g></g><g fill="#ff5711" fill-opacity="1"><g transform="translate(163.508676, 174.374989)"><g><path d="M 10.265625 -5.015625 L 2.859375 -5.015625 C 2.910156 -3.710938 3.222656 -2.753906 3.796875 -2.140625 C 4.378906 -1.523438 5.179688 -1.21875 6.203125 -1.21875 C 6.972656 -1.21875 7.59375 -1.351562 8.0625 -1.625 C 8.53125 -1.90625 8.894531 -2.335938 9.15625 -2.921875 L 9.359375 -2.921875 L 10.40625 -2.3125 C 10.09375 -1.53125 9.59375 -0.914062 8.90625 -0.46875 C 8.21875 -0.0195312 7.316406 0.203125 6.203125 0.203125 C 5.160156 0.203125 4.265625 0 3.515625 -0.40625 C 2.765625 -0.820312 2.1875 -1.445312 1.78125 -2.28125 C 1.382812 -3.113281 1.1875 -4.144531 1.1875 -5.375 C 1.1875 -6.601562 1.398438 -7.632812 1.828125 -8.46875 C 2.253906 -9.3125 2.832031 -9.941406 3.5625 -10.359375 C 4.300781 -10.773438 5.148438 -10.984375 6.109375 -10.984375 C 7.484375 -10.984375 8.554688 -10.59375 9.328125 -9.8125 C 10.109375 -9.03125 10.503906 -7.875 10.515625 -6.34375 C 10.515625 -5.75 10.5 -5.347656 10.46875 -5.140625 Z M 8.9375 -6.34375 C 8.90625 -7.488281 8.648438 -8.320312 8.171875 -8.84375 C 7.691406 -9.363281 7.003906 -9.625 6.109375 -9.625 C 5.160156 -9.625 4.414062 -9.363281 3.875 -8.84375 C 3.34375 -8.320312 3.019531 -7.488281 2.90625 -6.34375 Z M 8.9375 -6.34375 "/></g></g></g><g fill="#ff5711" fill-opacity="1"><g transform="translate(134.418483, 194.624987)"><g><path d="M 3.84375 -14.28125 L 3.84375 -1.390625 L 10.71875 -1.390625 L 10.71875 0 L 2.15625 0 L 2.15625 -14.28125 Z M 3.84375 -14.28125 "/></g></g></g><g fill="#ff5711" fill-opacity="1"><g transform="translate(145.73242, 194.624987)"><g><path d="M 10.265625 -5.015625 L 2.859375 -5.015625 C 2.910156 -3.710938 3.222656 -2.753906 3.796875 -2.140625 C 4.378906 -1.523438 5.179688 -1.21875 6.203125 -1.21875 C 6.972656 -1.21875 7.59375 -1.351562 8.0625 -1.625 C 8.53125 -1.90625 8.894531 -2.335938 9.15625 -2.921875 L 9.359375 -2.921875 L 10.40625 -2.3125 C 10.09375 -1.53125 9.59375 -0.914062 8.90625 -0.46875 C 8.21875 -0.0195312 7.316406 0.203125 6.203125 0.203125 C 5.160156 0.203125 4.265625 0 3.515625 -0.40625 C 2.765625 -0.820312 2.1875 -1.445312 1.78125 -2.28125 C 1.382812 -3.113281 1.1875 -4.144531 1.1875 -5.375 C 1.1875 -6.601562 1.398438 -7.632812 1.828125 -8.46875 C 2.253906 -9.3125 2.832031 -9.941406 3.5625 -10.359375 C 4.300781 -10.773438 5.148438 -10.984375 6.109375 -10.984375 C 7.484375 -10.984375 8.554688 -10.59375 9.328125 -9.8125 C 10.109375 -9.03125 10.503906 -7.875 10.515625 -6.34375 C 10.515625 -5.75 10.5 -5.347656 10.46875 -5.140625 Z M 8.9375 -6.34375 C 8.90625 -7.488281 8.648438 -8.320312 8.171875 -8.84375 C 7.691406 -9.363281 7.003906 -9.625 6.109375 -9.625 C 5.160156 -9.625 4.414062 -9.363281 3.875 -8.84375 C 3.34375 -8.320312 3.019531 -7.488281 2.90625 -6.34375 Z M 8.9375 -6.34375 "/></g></g></g><g fill="#ff5711" fill-opacity="1"><g transform="translate(157.212309, 194.624987)"><g><path d="M 4.4375 0.203125 C 3.382812 0.203125 2.554688 -0.0703125 1.953125 -0.625 C 1.359375 -1.175781 1.0625 -1.96875 1.0625 -3 C 1.0625 -3.632812 1.191406 -4.171875 1.453125 -4.609375 C 1.722656 -5.054688 2.132812 -5.414062 2.6875 -5.6875 C 3.238281 -5.96875 3.960938 -6.179688 4.859375 -6.328125 C 5.640625 -6.460938 6.234375 -6.609375 6.640625 -6.765625 C 7.046875 -6.929688 7.316406 -7.113281 7.453125 -7.3125 C 7.597656 -7.519531 7.671875 -7.773438 7.671875 -8.078125 C 7.671875 -8.566406 7.5 -8.941406 7.15625 -9.203125 C 6.820312 -9.460938 6.285156 -9.59375 5.546875 -9.59375 C 4.847656 -9.59375 4.25 -9.457031 3.75 -9.1875 C 3.257812 -8.914062 2.804688 -8.515625 2.390625 -7.984375 L 2.1875 -7.984375 L 1.40625 -9.078125 C 1.863281 -9.660156 2.441406 -10.125 3.140625 -10.46875 C 3.847656 -10.8125 4.648438 -10.984375 5.546875 -10.984375 C 6.816406 -10.984375 7.753906 -10.703125 8.359375 -10.140625 C 8.960938 -9.585938 9.265625 -8.816406 9.265625 -7.828125 L 9.265625 -2.125 C 9.265625 -1.519531 9.515625 -1.21875 10.015625 -1.21875 C 10.191406 -1.21875 10.359375 -1.25 10.515625 -1.3125 L 10.640625 -1.265625 L 10.828125 -0.171875 C 10.710938 -0.0859375 10.554688 -0.0234375 10.359375 0.015625 C 10.171875 0.0546875 9.976562 0.078125 9.78125 0.078125 C 9.1875 0.078125 8.738281 -0.0507812 8.4375 -0.3125 C 8.132812 -0.570312 7.941406 -0.957031 7.859375 -1.46875 L 7.640625 -1.484375 C 7.335938 -0.921875 6.925781 -0.5 6.40625 -0.21875 C 5.882812 0.0625 5.226562 0.203125 4.4375 0.203125 Z M 4.796875 -1.0625 C 5.390625 -1.0625 5.90625 -1.195312 6.34375 -1.46875 C 6.789062 -1.75 7.128906 -2.140625 7.359375 -2.640625 C 7.597656 -3.148438 7.71875 -3.734375 7.71875 -4.390625 L 7.71875 -5.75 L 7.53125 -5.796875 C 7.289062 -5.617188 7 -5.472656 6.65625 -5.359375 C 6.3125 -5.253906 5.828125 -5.15625 5.203125 -5.0625 C 4.578125 -4.976562 4.082031 -4.847656 3.71875 -4.671875 C 3.351562 -4.492188 3.09375 -4.269531 2.9375 -4 C 2.78125 -3.726562 2.703125 -3.394531 2.703125 -3 C 2.703125 -2.363281 2.882812 -1.878906 3.25 -1.546875 C 3.625 -1.222656 4.140625 -1.0625 4.796875 -1.0625 Z M 4.796875 -1.0625 "/></g></g></g><g fill="#ff5711" fill-opacity="1"><g transform="translate(168.350533, 194.624987)"><g><path d="M 4.90625 0.203125 C 4.226562 0.203125 3.601562 0.113281 3.03125 -0.0625 C 2.457031 -0.238281 1.972656 -0.484375 1.578125 -0.796875 C 1.179688 -1.109375 0.898438 -1.460938 0.734375 -1.859375 L 1.671875 -2.828125 L 1.875 -2.828125 C 2.226562 -2.296875 2.648438 -1.894531 3.140625 -1.625 C 3.640625 -1.351562 4.226562 -1.21875 4.90625 -1.21875 C 5.707031 -1.21875 6.3125 -1.375 6.71875 -1.6875 C 7.132812 -2 7.34375 -2.429688 7.34375 -2.984375 C 7.34375 -3.398438 7.21875 -3.742188 6.96875 -4.015625 C 6.71875 -4.296875 6.3125 -4.507812 5.75 -4.65625 L 3.9375 -5.09375 C 2.96875 -5.332031 2.257812 -5.703125 1.8125 -6.203125 C 1.363281 -6.710938 1.140625 -7.34375 1.140625 -8.09375 C 1.140625 -8.675781 1.289062 -9.1875 1.59375 -9.625 C 1.894531 -10.0625 2.328125 -10.394531 2.890625 -10.625 C 3.453125 -10.863281 4.117188 -10.984375 4.890625 -10.984375 C 5.878906 -10.984375 6.660156 -10.84375 7.234375 -10.5625 C 7.804688 -10.28125 8.25 -9.894531 8.5625 -9.40625 L 7.671875 -8.53125 L 7.46875 -8.53125 C 7.125 -8.925781 6.75 -9.210938 6.34375 -9.390625 C 5.9375 -9.566406 5.453125 -9.65625 4.890625 -9.65625 C 4.179688 -9.65625 3.640625 -9.523438 3.265625 -9.265625 C 2.890625 -9.015625 2.703125 -8.648438 2.703125 -8.171875 C 2.703125 -7.734375 2.832031 -7.378906 3.09375 -7.109375 C 3.363281 -6.835938 3.832031 -6.625 4.5 -6.46875 L 6.28125 -6.03125 C 7.21875 -5.8125 7.894531 -5.441406 8.3125 -4.921875 C 8.726562 -4.410156 8.9375 -3.769531 8.9375 -3 C 8.9375 -2.363281 8.785156 -1.804688 8.484375 -1.328125 C 8.179688 -0.847656 7.726562 -0.472656 7.125 -0.203125 C 6.519531 0.0664062 5.78125 0.203125 4.90625 0.203125 Z M 4.90625 0.203125 "/></g></g></g><g fill="#ff5711" fill-opacity="1"><g transform="translate(178.307579, 194.624987)"><g><path d="M 2.671875 -12.859375 C 2.335938 -12.859375 2.0625 -12.960938 1.84375 -13.171875 C 1.632812 -13.378906 1.53125 -13.644531 1.53125 -13.96875 C 1.53125 -14.300781 1.632812 -14.570312 1.84375 -14.78125 C 2.0625 -14.988281 2.335938 -15.09375 2.671875 -15.09375 C 3.015625 -15.09375 3.289062 -14.988281 3.5 -14.78125 C 3.707031 -14.570312 3.8125 -14.300781 3.8125 -13.96875 C 3.8125 -13.644531 3.707031 -13.378906 3.5 -13.171875 C 3.289062 -12.960938 3.015625 -12.859375 2.671875 -12.859375 Z M 1.875 0 L 1.875 -10.765625 L 3.46875 -10.765625 L 3.46875 0 Z M 1.875 0 "/></g></g></g><g fill="#ff5711" fill-opacity="1"><g transform="translate(183.647289, 194.624987)"><g><path d="M 1.875 0 L 1.875 -10.765625 L 3.390625 -10.765625 L 3.390625 -9.078125 L 3.59375 -9.03125 C 3.945312 -9.664062 4.398438 -10.148438 4.953125 -10.484375 C 5.515625 -10.816406 6.195312 -10.984375 7 -10.984375 C 8.300781 -10.984375 9.238281 -10.648438 9.8125 -9.984375 C 10.394531 -9.328125 10.6875 -8.3125 10.6875 -6.9375 L 10.6875 0 L 9.109375 0 L 9.109375 -6.890625 C 9.109375 -7.546875 9.023438 -8.066406 8.859375 -8.453125 C 8.691406 -8.847656 8.429688 -9.132812 8.078125 -9.3125 C 7.734375 -9.5 7.273438 -9.59375 6.703125 -9.59375 C 5.734375 -9.59375 4.953125 -9.269531 4.359375 -8.625 C 3.765625 -7.988281 3.46875 -6.957031 3.46875 -5.53125 L 3.46875 0 Z M 1.875 0 "/></g></g></g><g fill="#ff5711" fill-opacity="1"><g transform="translate(196.044787, 194.624987)"><g><path d="M 5.546875 4.578125 C 3.847656 4.578125 2.609375 4.289062 1.828125 3.71875 C 1.046875 3.15625 0.65625 2.40625 0.65625 1.46875 C 0.65625 0.863281 0.835938 0.378906 1.203125 0.015625 C 1.566406 -0.335938 2.097656 -0.59375 2.796875 -0.75 L 2.796875 -0.953125 C 2.460938 -1.140625 2.210938 -1.359375 2.046875 -1.609375 C 1.878906 -1.867188 1.796875 -2.175781 1.796875 -2.53125 C 1.796875 -2.945312 1.925781 -3.285156 2.1875 -3.546875 C 2.457031 -3.804688 2.851562 -4.003906 3.375 -4.140625 L 3.375 -4.34375 C 2.195312 -4.96875 1.609375 -5.972656 1.609375 -7.359375 C 1.609375 -8.066406 1.765625 -8.691406 2.078125 -9.234375 C 2.398438 -9.785156 2.859375 -10.210938 3.453125 -10.515625 C 4.046875 -10.828125 4.738281 -10.984375 5.53125 -10.984375 C 6.4375 -10.984375 7.191406 -10.78125 7.796875 -10.375 C 8.023438 -10.632812 8.195312 -10.90625 8.3125 -11.1875 C 8.425781 -11.476562 8.5 -11.804688 8.53125 -12.171875 L 8.734375 -12.3125 L 10.046875 -12 C 9.972656 -11.445312 9.804688 -10.984375 9.546875 -10.609375 C 9.285156 -10.234375 8.910156 -9.921875 8.421875 -9.671875 L 8.421875 -9.46875 C 8.773438 -9.1875 9.03125 -8.863281 9.1875 -8.5 C 9.351562 -8.132812 9.4375 -7.707031 9.4375 -7.21875 C 9.4375 -6.539062 9.273438 -5.929688 8.953125 -5.390625 C 8.628906 -4.847656 8.171875 -4.421875 7.578125 -4.109375 C 6.984375 -3.804688 6.300781 -3.65625 5.53125 -3.65625 C 5.4375 -3.65625 5.273438 -3.660156 5.046875 -3.671875 C 4.785156 -3.679688 4.59375 -3.6875 4.46875 -3.6875 C 4.125 -3.6875 3.847656 -3.597656 3.640625 -3.421875 C 3.441406 -3.253906 3.34375 -3.03125 3.34375 -2.75 C 3.34375 -2.414062 3.453125 -2.164062 3.671875 -2 C 3.890625 -1.84375 4.25 -1.753906 4.75 -1.734375 L 7.3125 -1.65625 C 8.40625 -1.613281 9.21875 -1.351562 9.75 -0.875 C 10.28125 -0.40625 10.546875 0.257812 10.546875 1.125 C 10.546875 1.769531 10.375 2.347656 10.03125 2.859375 C 9.6875 3.378906 9.140625 3.796875 8.390625 4.109375 C 7.640625 4.421875 6.691406 4.578125 5.546875 4.578125 Z M 5.53125 -5.015625 C 6.289062 -5.015625 6.878906 -5.210938 7.296875 -5.609375 C 7.710938 -6.015625 7.921875 -6.570312 7.921875 -7.28125 C 7.921875 -8.03125 7.710938 -8.601562 7.296875 -9 C 6.890625 -9.40625 6.300781 -9.609375 5.53125 -9.609375 C 4.757812 -9.609375 4.171875 -9.40625 3.765625 -9 C 3.367188 -8.601562 3.171875 -8.03125 3.171875 -7.28125 C 3.171875 -6.5625 3.367188 -6.003906 3.765625 -5.609375 C 4.171875 -5.210938 4.757812 -5.015625 5.53125 -5.015625 Z M 5.546875 3.203125 C 6.335938 3.203125 6.984375 3.113281 7.484375 2.9375 C 7.992188 2.757812 8.359375 2.523438 8.578125 2.234375 C 8.804688 1.953125 8.921875 1.628906 8.921875 1.265625 C 8.921875 0.953125 8.859375 0.695312 8.734375 0.5 C 8.617188 0.300781 8.425781 0.148438 8.15625 0.046875 C 7.882812 -0.046875 7.519531 -0.101562 7.0625 -0.125 L 4.65625 -0.25 L 4.3125 -0.25 C 2.957031 -0.226562 2.28125 0.296875 2.28125 1.328125 C 2.28125 2.578125 3.367188 3.203125 5.546875 3.203125 Z M 5.546875 3.203125 "/></g></g></g><g fill="#ff5711" fill-opacity="1"><g transform="translate(134.418483, 214.874986)"><g><path d="M 11.140625 -14.28125 L 11.140625 -12.859375 L 6.671875 -12.859375 L 6.671875 0 L 5 0 L 5 -12.859375 L 0.53125 -12.859375 L 0.53125 -14.28125 Z M 11.140625 -14.28125 "/></g></g></g><g fill="#ff5711" fill-opacity="1"><g transform="translate(146.074084, 214.874986)"><g><path d="M 10.265625 -5.015625 L 2.859375 -5.015625 C 2.910156 -3.710938 3.222656 -2.753906 3.796875 -2.140625 C 4.378906 -1.523438 5.179688 -1.21875 6.203125 -1.21875 C 6.972656 -1.21875 7.59375 -1.351562 8.0625 -1.625 C 8.53125 -1.90625 8.894531 -2.335938 9.15625 -2.921875 L 9.359375 -2.921875 L 10.40625 -2.3125 C 10.09375 -1.53125 9.59375 -0.914062 8.90625 -0.46875 C 8.21875 -0.0195312 7.316406 0.203125 6.203125 0.203125 C 5.160156 0.203125 4.265625 0 3.515625 -0.40625 C 2.765625 -0.820312 2.1875 -1.445312 1.78125 -2.28125 C 1.382812 -3.113281 1.1875 -4.144531 1.1875 -5.375 C 1.1875 -6.601562 1.398438 -7.632812 1.828125 -8.46875 C 2.253906 -9.3125 2.832031 -9.941406 3.5625 -10.359375 C 4.300781 -10.773438 5.148438 -10.984375 6.109375 -10.984375 C 7.484375 -10.984375 8.554688 -10.59375 9.328125 -9.8125 C 10.109375 -9.03125 10.503906 -7.875 10.515625 -6.34375 C 10.515625 -5.75 10.5 -5.347656 10.46875 -5.140625 Z M 8.9375 -6.34375 C 8.90625 -7.488281 8.648438 -8.320312 8.171875 -8.84375 C 7.691406 -9.363281 7.003906 -9.625 6.109375 -9.625 C 5.160156 -9.625 4.414062 -9.363281 3.875 -8.84375 C 3.34375 -8.320312 3.019531 -7.488281 2.90625 -6.34375 Z M 8.9375 -6.34375 "/></g></g></g><g fill="#ff5711" fill-opacity="1"><g transform="translate(157.553972, 214.874986)"><g><path d="M 6.1875 0.203125 C 5.226562 0.203125 4.367188 -0.0078125 3.609375 -0.4375 C 2.859375 -0.875 2.265625 -1.515625 1.828125 -2.359375 C 1.398438 -3.203125 1.1875 -4.207031 1.1875 -5.375 C 1.1875 -6.5625 1.398438 -7.570312 1.828125 -8.40625 C 2.265625 -9.25 2.859375 -9.890625 3.609375 -10.328125 C 4.367188 -10.765625 5.226562 -10.984375 6.1875 -10.984375 C 7.320312 -10.984375 8.222656 -10.765625 8.890625 -10.328125 C 9.566406 -9.898438 10.054688 -9.328125 10.359375 -8.609375 L 9.28125 -7.828125 L 9.078125 -7.828125 C 8.785156 -8.421875 8.410156 -8.851562 7.953125 -9.125 C 7.492188 -9.40625 6.90625 -9.546875 6.1875 -9.546875 C 5.519531 -9.546875 4.9375 -9.390625 4.4375 -9.078125 C 3.9375 -8.765625 3.546875 -8.296875 3.265625 -7.671875 C 2.992188 -7.046875 2.859375 -6.28125 2.859375 -5.375 C 2.859375 -4.476562 2.992188 -3.71875 3.265625 -3.09375 C 3.546875 -2.476562 3.9375 -2.007812 4.4375 -1.6875 C 4.9375 -1.375 5.519531 -1.21875 6.1875 -1.21875 C 6.9375 -1.21875 7.554688 -1.382812 8.046875 -1.71875 C 8.535156 -2.0625 8.921875 -2.597656 9.203125 -3.328125 L 9.40625 -3.328125 L 10.453125 -2.71875 C 10.171875 -1.8125 9.671875 -1.097656 8.953125 -0.578125 C 8.234375 -0.0546875 7.3125 0.203125 6.1875 0.203125 Z M 6.1875 0.203125 "/></g></g></g><g fill="#ff5711" fill-opacity="1"><g transform="translate(168.653149, 214.874986)"><g><path d="M 1.875 0 L 1.875 -15.09375 L 3.46875 -15.09375 L 3.46875 -9.234375 L 3.671875 -9.203125 C 4.441406 -10.390625 5.550781 -10.984375 7 -10.984375 C 8.300781 -10.984375 9.238281 -10.648438 9.8125 -9.984375 C 10.394531 -9.328125 10.6875 -8.3125 10.6875 -6.9375 L 10.6875 0 L 9.109375 0 L 9.109375 -6.890625 C 9.109375 -7.546875 9.023438 -8.066406 8.859375 -8.453125 C 8.691406 -8.847656 8.429688 -9.132812 8.078125 -9.3125 C 7.734375 -9.5 7.273438 -9.59375 6.703125 -9.59375 C 5.734375 -9.59375 4.953125 -9.273438 4.359375 -8.640625 C 3.765625 -8.015625 3.46875 -6.976562 3.46875 -5.53125 L 3.46875 0 Z M 1.875 0 "/></g></g></g><g fill="#ff5711" fill-opacity="1"><g transform="translate(181.050648, 214.874986)"><g><path d="M 1.875 0 L 1.875 -10.765625 L 3.390625 -10.765625 L 3.390625 -9.078125 L 3.59375 -9.03125 C 3.945312 -9.664062 4.398438 -10.148438 4.953125 -10.484375 C 5.515625 -10.816406 6.195312 -10.984375 7 -10.984375 C 8.300781 -10.984375 9.238281 -10.648438 9.8125 -9.984375 C 10.394531 -9.328125 10.6875 -8.3125 10.6875 -6.9375 L 10.6875 0 L 9.109375 0 L 9.109375 -6.890625 C 9.109375 -7.546875 9.023438 -8.066406 8.859375 -8.453125 C 8.691406 -8.847656 8.429688 -9.132812 8.078125 -9.3125 C 7.734375 -9.5 7.273438 -9.59375 6.703125 -9.59375 C 5.734375 -9.59375 4.953125 -9.269531 4.359375 -8.625 C 3.765625 -7.988281 3.46875 -6.957031 3.46875 -5.53125 L 3.46875 0 Z M 1.875 0 "/></g></g></g><g fill="#ff5711" fill-opacity="1"><g transform="translate(193.448146, 214.874986)"><g><path d="M 6.1875 0.203125 C 5.164062 0.203125 4.28125 -0.0078125 3.53125 -0.4375 C 2.78125 -0.863281 2.203125 -1.492188 1.796875 -2.328125 C 1.390625 -3.171875 1.1875 -4.1875 1.1875 -5.375 C 1.1875 -6.570312 1.390625 -7.585938 1.796875 -8.421875 C 2.203125 -9.265625 2.78125 -9.898438 3.53125 -10.328125 C 4.28125 -10.765625 5.164062 -10.984375 6.1875 -10.984375 C 7.195312 -10.984375 8.078125 -10.765625 8.828125 -10.328125 C 9.585938 -9.898438 10.171875 -9.265625 10.578125 -8.421875 C 10.984375 -7.585938 11.1875 -6.570312 11.1875 -5.375 C 11.1875 -4.1875 10.984375 -3.171875 10.578125 -2.328125 C 10.171875 -1.492188 9.585938 -0.863281 8.828125 -0.4375 C 8.078125 -0.0078125 7.195312 0.203125 6.1875 0.203125 Z M 6.1875 -1.21875 C 7.257812 -1.21875 8.078125 -1.554688 8.640625 -2.234375 C 9.210938 -2.910156 9.5 -3.957031 9.5 -5.375 C 9.5 -6.800781 9.210938 -7.851562 8.640625 -8.53125 C 8.078125 -9.207031 7.257812 -9.546875 6.1875 -9.546875 C 5.113281 -9.546875 4.289062 -9.207031 3.71875 -8.53125 C 3.144531 -7.851562 2.859375 -6.800781 2.859375 -5.375 C 2.859375 -3.957031 3.144531 -2.910156 3.71875 -2.234375 C 4.289062 -1.554688 5.113281 -1.21875 6.1875 -1.21875 Z M 6.1875 -1.21875 "/></g></g></g><g fill="#ff5711" fill-opacity="1"><g transform="translate(205.806597, 214.874986)"><g><path d="M 4.28125 0.203125 C 3.519531 0.203125 2.921875 -0.0078125 2.484375 -0.4375 C 2.054688 -0.875 1.84375 -1.523438 1.84375 -2.390625 L 1.84375 -15.09375 L 3.421875 -15.09375 L 3.421875 -2.484375 C 3.421875 -2.035156 3.507812 -1.710938 3.6875 -1.515625 C 3.863281 -1.316406 4.132812 -1.21875 4.5 -1.21875 C 4.71875 -1.21875 4.941406 -1.253906 5.171875 -1.328125 L 5.296875 -1.296875 L 5.484375 -0.046875 C 5.367188 0.0351562 5.203125 0.0976562 4.984375 0.140625 C 4.765625 0.179688 4.53125 0.203125 4.28125 0.203125 Z M 4.28125 0.203125 "/></g></g></g><g fill="#ff5711" fill-opacity="1"><g transform="translate(211.663683, 214.874986)"><g><path d="M 6.1875 0.203125 C 5.164062 0.203125 4.28125 -0.0078125 3.53125 -0.4375 C 2.78125 -0.863281 2.203125 -1.492188 1.796875 -2.328125 C 1.390625 -3.171875 1.1875 -4.1875 1.1875 -5.375 C 1.1875 -6.570312 1.390625 -7.585938 1.796875 -8.421875 C 2.203125 -9.265625 2.78125 -9.898438 3.53125 -10.328125 C 4.28125 -10.765625 5.164062 -10.984375 6.1875 -10.984375 C 7.195312 -10.984375 8.078125 -10.765625 8.828125 -10.328125 C 9.585938 -9.898438 10.171875 -9.265625 10.578125 -8.421875 C 10.984375 -7.585938 11.1875 -6.570312 11.1875 -5.375 C 11.1875 -4.1875 10.984375 -3.171875 10.578125 -2.328125 C 10.171875 -1.492188 9.585938 -0.863281 8.828125 -0.4375 C 8.078125 -0.0078125 7.195312 0.203125 6.1875 0.203125 Z M 6.1875 -1.21875 C 7.257812 -1.21875 8.078125 -1.554688 8.640625 -2.234375 C 9.210938 -2.910156 9.5 -3.957031 9.5 -5.375 C 9.5 -6.800781 9.210938 -7.851562 8.640625 -8.53125 C 8.078125 -9.207031 7.257812 -9.546875 6.1875 -9.546875 C 5.113281 -9.546875 4.289062 -9.207031 3.71875 -8.53125 C 3.144531 -7.851562 2.859375 -6.800781 2.859375 -5.375 C 2.859375 -3.957031 3.144531 -2.910156 3.71875 -2.234375 C 4.289062 -1.554688 5.113281 -1.21875 6.1875 -1.21875 Z M 6.1875 -1.21875 "/></g></g></g><g fill="#ff5711" fill-opacity="1"><g transform="translate(224.022134, 214.874986)"><g><path d="M 5.546875 4.578125 C 3.847656 4.578125 2.609375 4.289062 1.828125 3.71875 C 1.046875 3.15625 0.65625 2.40625 0.65625 1.46875 C 0.65625 0.863281 0.835938 0.378906 1.203125 0.015625 C 1.566406 -0.335938 2.097656 -0.59375 2.796875 -0.75 L 2.796875 -0.953125 C 2.460938 -1.140625 2.210938 -1.359375 2.046875 -1.609375 C 1.878906 -1.867188 1.796875 -2.175781 1.796875 -2.53125 C 1.796875 -2.945312 1.925781 -3.285156 2.1875 -3.546875 C 2.457031 -3.804688 2.851562 -4.003906 3.375 -4.140625 L 3.375 -4.34375 C 2.195312 -4.96875 1.609375 -5.972656 1.609375 -7.359375 C 1.609375 -8.066406 1.765625 -8.691406 2.078125 -9.234375 C 2.398438 -9.785156 2.859375 -10.210938 3.453125 -10.515625 C 4.046875 -10.828125 4.738281 -10.984375 5.53125 -10.984375 C 6.4375 -10.984375 7.191406 -10.78125 7.796875 -10.375 C 8.023438 -10.632812 8.195312 -10.90625 8.3125 -11.1875 C 8.425781 -11.476562 8.5 -11.804688 8.53125 -12.171875 L 8.734375 -12.3125 L 10.046875 -12 C 9.972656 -11.445312 9.804688 -10.984375 9.546875 -10.609375 C 9.285156 -10.234375 8.910156 -9.921875 8.421875 -9.671875 L 8.421875 -9.46875 C 8.773438 -9.1875 9.03125 -8.863281 9.1875 -8.5 C 9.351562 -8.132812 9.4375 -7.707031 9.4375 -7.21875 C 9.4375 -6.539062 9.273438 -5.929688 8.953125 -5.390625 C 8.628906 -4.847656 8.171875 -4.421875 7.578125 -4.109375 C 6.984375 -3.804688 6.300781 -3.65625 5.53125 -3.65625 C 5.4375 -3.65625 5.273438 -3.660156 5.046875 -3.671875 C 4.785156 -3.679688 4.59375 -3.6875 4.46875 -3.6875 C 4.125 -3.6875 3.847656 -3.597656 3.640625 -3.421875 C 3.441406 -3.253906 3.34375 -3.03125 3.34375 -2.75 C 3.34375 -2.414062 3.453125 -2.164062 3.671875 -2 C 3.890625 -1.84375 4.25 -1.753906 4.75 -1.734375 L 7.3125 -1.65625 C 8.40625 -1.613281 9.21875 -1.351562 9.75 -0.875 C 10.28125 -0.40625 10.546875 0.257812 10.546875 1.125 C 10.546875 1.769531 10.375 2.347656 10.03125 2.859375 C 9.6875 3.378906 9.140625 3.796875 8.390625 4.109375 C 7.640625 4.421875 6.691406 4.578125 5.546875 4.578125 Z M 5.53125 -5.015625 C 6.289062 -5.015625 6.878906 -5.210938 7.296875 -5.609375 C 7.710938 -6.015625 7.921875 -6.570312 7.921875 -7.28125 C 7.921875 -8.03125 7.710938 -8.601562 7.296875 -9 C 6.890625 -9.40625 6.300781 -9.609375 5.53125 -9.609375 C 4.757812 -9.609375 4.171875 -9.40625 3.765625 -9 C 3.367188 -8.601562 3.171875 -8.03125 3.171875 -7.28125 C 3.171875 -6.5625 3.367188 -6.003906 3.765625 -5.609375 C 4.171875 -5.210938 4.757812 -5.015625 5.53125 -5.015625 Z M 5.546875 3.203125 C 6.335938 3.203125 6.984375 3.113281 7.484375 2.9375 C 7.992188 2.757812 8.359375 2.523438 8.578125 2.234375 C 8.804688 1.953125 8.921875 1.628906 8.921875 1.265625 C 8.921875 0.953125 8.859375 0.695312 8.734375 0.5 C 8.617188 0.300781 8.425781 0.148438 8.15625 0.046875 C 7.882812 -0.046875 7.519531 -0.101562 7.0625 -0.125 L 4.65625 -0.25 L 4.3125 -0.25 C 2.957031 -0.226562 2.28125 0.296875 2.28125 1.328125 C 2.28125 2.578125 3.367188 3.203125 5.546875 3.203125 Z M 5.546875 3.203125 "/></g></g></g><g fill="#ff5711" fill-opacity="1"><g transform="translate(235.052979, 214.874986)"><g><path d="M 2.671875 -12.859375 C 2.335938 -12.859375 2.0625 -12.960938 1.84375 -13.171875 C 1.632812 -13.378906 1.53125 -13.644531 1.53125 -13.96875 C 1.53125 -14.300781 1.632812 -14.570312 1.84375 -14.78125 C 2.0625 -14.988281 2.335938 -15.09375 2.671875 -15.09375 C 3.015625 -15.09375 3.289062 -14.988281 3.5 -14.78125 C 3.707031 -14.570312 3.8125 -14.300781 3.8125 -13.96875 C 3.8125 -13.644531 3.707031 -13.378906 3.5 -13.171875 C 3.289062 -12.960938 3.015625 -12.859375 2.671875 -12.859375 Z M 1.875 0 L 1.875 -10.765625 L 3.46875 -10.765625 L 3.46875 0 Z M 1.875 0 "/></g></g></g><g fill="#ff5711" fill-opacity="1"><g transform="translate(240.392689, 214.874986)"><g><path d="M 10.265625 -5.015625 L 2.859375 -5.015625 C 2.910156 -3.710938 3.222656 -2.753906 3.796875 -2.140625 C 4.378906 -1.523438 5.179688 -1.21875 6.203125 -1.21875 C 6.972656 -1.21875 7.59375 -1.351562 8.0625 -1.625 C 8.53125 -1.90625 8.894531 -2.335938 9.15625 -2.921875 L 9.359375 -2.921875 L 10.40625 -2.3125 C 10.09375 -1.53125 9.59375 -0.914062 8.90625 -0.46875 C 8.21875 -0.0195312 7.316406 0.203125 6.203125 0.203125 C 5.160156 0.203125 4.265625 0 3.515625 -0.40625 C 2.765625 -0.820312 2.1875 -1.445312 1.78125 -2.28125 C 1.382812 -3.113281 1.1875 -4.144531 1.1875 -5.375 C 1.1875 -6.601562 1.398438 -7.632812 1.828125 -8.46875 C 2.253906 -9.3125 2.832031 -9.941406 3.5625 -10.359375 C 4.300781 -10.773438 5.148438 -10.984375 6.109375 -10.984375 C 7.484375 -10.984375 8.554688 -10.59375 9.328125 -9.8125 C 10.109375 -9.03125 10.503906 -7.875 10.515625 -6.34375 C 10.515625 -5.75 10.5 -5.347656 10.46875 -5.140625 Z M 8.9375 -6.34375 C 8.90625 -7.488281 8.648438 -8.320312 8.171875 -8.84375 C 7.691406 -9.363281 7.003906 -9.625 6.109375 -9.625 C 5.160156 -9.625 4.414062 -9.363281 3.875 -8.84375 C 3.34375 -8.320312 3.019531 -7.488281 2.90625 -6.34375 Z M 8.9375 -6.34375 "/></g></g></g><g fill="#ff5711" fill-opacity="1"><g transform="translate(251.872577, 214.874986)"><g><path d="M 4.90625 0.203125 C 4.226562 0.203125 3.601562 0.113281 3.03125 -0.0625 C 2.457031 -0.238281 1.972656 -0.484375 1.578125 -0.796875 C 1.179688 -1.109375 0.898438 -1.460938 0.734375 -1.859375 L 1.671875 -2.828125 L 1.875 -2.828125 C 2.226562 -2.296875 2.648438 -1.894531 3.140625 -1.625 C 3.640625 -1.351562 4.226562 -1.21875 4.90625 -1.21875 C 5.707031 -1.21875 6.3125 -1.375 6.71875 -1.6875 C 7.132812 -2 7.34375 -2.429688 7.34375 -2.984375 C 7.34375 -3.398438 7.21875 -3.742188 6.96875 -4.015625 C 6.71875 -4.296875 6.3125 -4.507812 5.75 -4.65625 L 3.9375 -5.09375 C 2.96875 -5.332031 2.257812 -5.703125 1.8125 -6.203125 C 1.363281 -6.710938 1.140625 -7.34375 1.140625 -8.09375 C 1.140625 -8.675781 1.289062 -9.1875 1.59375 -9.625 C 1.894531 -10.0625 2.328125 -10.394531 2.890625 -10.625 C 3.453125 -10.863281 4.117188 -10.984375 4.890625 -10.984375 C 5.878906 -10.984375 6.660156 -10.84375 7.234375 -10.5625 C 7.804688 -10.28125 8.25 -9.894531 8.5625 -9.40625 L 7.671875 -8.53125 L 7.46875 -8.53125 C 7.125 -8.925781 6.75 -9.210938 6.34375 -9.390625 C 5.9375 -9.566406 5.453125 -9.65625 4.890625 -9.65625 C 4.179688 -9.65625 3.640625 -9.523438 3.265625 -9.265625 C 2.890625 -9.015625 2.703125 -8.648438 2.703125 -8.171875 C 2.703125 -7.734375 2.832031 -7.378906 3.09375 -7.109375 C 3.363281 -6.835938 3.832031 -6.625 4.5 -6.46875 L 6.28125 -6.03125 C 7.21875 -5.8125 7.894531 -5.441406 8.3125 -4.921875 C 8.726562 -4.410156 8.9375 -3.769531 8.9375 -3 C 8.9375 -2.363281 8.785156 -1.804688 8.484375 -1.328125 C 8.179688 -0.847656 7.726562 -0.472656 7.125 -0.203125 C 6.519531 0.0664062 5.78125 0.203125 4.90625 0.203125 Z M 4.90625 0.203125 "/></g></g></g></svg>