<svg xmlns="http://www.w3.org/2000/svg" xmlns:xlink="http://www.w3.org/1999/xlink" width="500" zoomAndPan="magnify" viewBox="0 0 375 374.999991" height="500" preserveAspectRatio="xMidYMid meet" version="1.0"><defs><g/><clipPath id="8d90785828"><path d="M 42.09375 119.179688 L 332.535156 119.179688 L 332.535156 256.640625 L 42.09375 256.640625 Z M 42.09375 119.179688 " clip-rule="nonzero"/></clipPath><clipPath id="8da5bcba7a"><path d="M 51.820312 119.179688 L 322.761719 119.179688 C 325.34375 119.179688 327.816406 120.203125 329.640625 122.027344 C 331.464844 123.851562 332.492188 126.328125 332.492188 128.90625 L 332.492188 246.765625 C 332.492188 249.347656 331.464844 251.820312 329.640625 253.644531 C 327.816406 255.46875 325.34375 256.496094 322.761719 256.496094 L 51.820312 256.496094 C 49.238281 256.496094 46.765625 255.46875 44.941406 253.644531 C 43.117188 251.820312 42.09375 249.347656 42.09375 246.765625 L 42.09375 128.90625 C 42.09375 126.328125 43.117188 123.851562 44.941406 122.027344 C 46.765625 120.203125 49.238281 119.179688 51.820312 119.179688 Z M 51.820312 119.179688 " clip-rule="nonzero"/></clipPath></defs><g clip-path="url(#8d90785828)"><g clip-path="url(#8da5bcba7a)"><path stroke-linecap="butt" transform="matrix(0.422959, 0, 0, 0.422959, 42.092231, 119.178991)" fill="none" stroke-linejoin="miter" d="M 23.000069 0.00164774 L 663.585898 0.00164774 C 669.690586 0.00164774 675.536678 2.421357 679.849673 6.734352 C 684.162667 11.047346 686.591612 16.902674 686.591612 22.998126 L 686.591612 301.652638 C 686.591612 307.757326 684.162667 313.603419 679.849673 317.916413 C 675.536678 322.229407 669.690586 324.658352 663.585898 324.658352 L 23.000069 324.658352 C 16.895381 324.658352 11.049288 322.229407 6.736294 317.916413 C 2.4233 313.603419 0.00359057 307.757326 0.00359057 301.652638 L 0.00359057 22.998126 C 0.00359057 16.902674 2.4233 11.047346 6.736294 6.734352 C 11.049288 2.421357 16.895381 0.00164774 23.000069 0.00164774 Z M 23.000069 0.00164774 " stroke="#ff5711" stroke-width="16" stroke-opacity="1" stroke-miterlimit="4"/></g></g><path stroke-linecap="butt" transform="matrix(0.422959, 0, 0, 0.422959, 51.945099, 188.071248)" fill="none" stroke-linejoin="miter" d="M 29.997518 3.996775 L 177.867651 3.996775 " stroke="#ff5711" stroke-width="8" stroke-opacity="1" stroke-miterlimit="4"/><path stroke-linecap="round" transform="matrix(0.422959, 0, 0, 0.422959, 51.945099, 188.071248)" fill="none" stroke-linejoin="round" d="M 3.99949 3.996775 C 3.99949 -2.625103 9.374571 -8.000183 15.996448 -8.000183 C 22.627562 -8.000183 28.002642 -2.625103 28.002642 3.996775 C 28.002642 10.627889 22.627562 16.002969 15.996448 16.002969 C 9.374571 16.002969 3.99949 10.627889 3.99949 3.996775 " stroke="#ff5711" stroke-width="8" stroke-opacity="1" stroke-miterlimit="4"/><path stroke-linecap="round" transform="matrix(0.422959, 0, 0, 0.422959, 51.945099, 188.071248)" fill="none" stroke-linejoin="round" d="M 203.874914 3.996775 C 203.874914 10.627889 198.499833 16.002969 191.86872 16.002969 C 185.246842 16.002969 179.871762 10.627889 179.871762 3.996775 C 179.871762 -2.625103 185.246842 -8.000183 191.86872 -8.000183 C 198.499833 -8.000183 203.874914 -2.625103 203.874914 3.996775 " stroke="#ff5711" stroke-width="8" stroke-opacity="1" stroke-miterlimit="4"/><path stroke-linecap="butt" transform="matrix(0.422959, 0, 0, 0.422959, 51.945099, 220.149288)" fill="none" stroke-linejoin="miter" d="M 29.997518 33.559919 L 89.151112 33.559919 C 93.076214 33.559919 96.835076 32.00835 99.605737 29.23769 C 102.376397 26.457794 103.937202 22.698932 103.937202 18.783065 C 103.937202 14.857963 105.488772 11.099101 108.268667 8.328441 C 111.039328 5.557781 114.79819 3.996975 118.714056 3.996975 L 177.867651 3.996975 " stroke="#ff5711" stroke-width="8" stroke-opacity="1" stroke-miterlimit="4"/><path stroke-linecap="round" transform="matrix(0.422959, 0, 0, 0.422959, 51.945099, 220.149288)" fill="none" stroke-linejoin="round" d="M 3.99949 33.559919 C 3.99949 26.938042 9.374571 21.562961 15.996448 21.562961 C 22.627562 21.562961 28.002642 26.938042 28.002642 33.559919 C 28.002642 40.191033 22.627562 45.566113 15.996448 45.566113 C 9.374571 45.566113 3.99949 40.191033 3.99949 33.559919 " stroke="#ff5711" stroke-width="8" stroke-opacity="1" stroke-miterlimit="4"/><path stroke-linecap="round" transform="matrix(0.422959, 0, 0, 0.422959, 51.945099, 220.149288)" fill="none" stroke-linejoin="round" d="M 203.874914 3.996975 C 203.874914 10.628089 198.499833 16.00317 191.86872 16.00317 C 185.246842 16.00317 179.871762 10.628089 179.871762 3.996975 C 179.871762 -2.624902 185.246842 -7.999983 191.86872 -7.999983 C 198.499833 -7.999983 203.874914 -2.624902 203.874914 3.996975 " stroke="#ff5711" stroke-width="8" stroke-opacity="1" stroke-miterlimit="4"/><path stroke-linecap="butt" transform="matrix(0.422959, 0, 0, 0.422959, 51.945099, 139.641627)" fill="none" stroke-linejoin="miter" d="M 29.997518 3.996618 L 84.60723 3.996618 C 89.732951 3.996618 94.646255 6.037671 98.27582 9.658 C 101.896149 13.287565 103.937202 18.200869 103.937202 23.32659 C 103.937202 28.452311 105.969019 33.374851 109.598584 36.99518 C 113.218914 40.624745 118.141453 42.656562 123.267174 42.656562 L 177.867651 42.656562 " stroke="#ff5711" stroke-width="8" stroke-opacity="1" stroke-miterlimit="4"/><path stroke-linecap="round" transform="matrix(0.422959, 0, 0, 0.422959, 51.945099, 139.641627)" fill="none" stroke-linejoin="round" d="M 3.99949 3.996618 C 3.99949 -2.62526 9.374571 -8.000341 15.996448 -8.000341 C 22.627562 -8.000341 28.002642 -2.62526 28.002642 3.996618 C 28.002642 10.627731 22.627562 16.002812 15.996448 16.002812 C 9.374571 16.002812 3.99949 10.627731 3.99949 3.996618 " stroke="#ff5711" stroke-width="8" stroke-opacity="1" stroke-miterlimit="4"/><path stroke-linecap="round" transform="matrix(0.422959, 0, 0, 0.422959, 51.945099, 139.641627)" fill="none" stroke-linejoin="round" d="M 203.874914 42.656562 C 203.874914 49.287676 198.499833 54.662756 191.86872 54.662756 C 185.246842 54.662756 179.871762 49.287676 179.871762 42.656562 C 179.871762 36.034685 185.246842 30.659604 191.86872 30.659604 C 198.499833 30.659604 203.874914 36.034685 203.874914 42.656562 " stroke="#ff5711" stroke-width="8" stroke-opacity="1" stroke-miterlimit="4"/><g fill="#ff5711" fill-opacity="1"><g transform="translate(146.687865, 169.229188)"><g><path d="M 1.8125 0 L 1.8125 -18.578125 L 9.265625 -18.578125 C 11.191406 -18.578125 12.664062 -18.128906 13.6875 -17.234375 C 14.707031 -16.347656 15.21875 -15.203125 15.21875 -13.796875 C 15.21875 -12.628906 14.898438 -11.695312 14.265625 -11 C 13.640625 -10.300781 12.875 -9.828125 11.96875 -9.578125 C 13.03125 -9.367188 13.90625 -8.84375 14.59375 -8 C 15.289062 -7.164062 15.640625 -6.191406 15.640625 -5.078125 C 15.640625 -3.597656 15.109375 -2.378906 14.046875 -1.421875 C 12.984375 -0.472656 11.476562 0 9.53125 0 Z M 5.203125 -10.78125 L 8.765625 -10.78125 C 9.710938 -10.78125 10.441406 -11 10.953125 -11.4375 C 11.472656 -11.882812 11.734375 -12.515625 11.734375 -13.328125 C 11.734375 -14.109375 11.476562 -14.722656 10.96875 -15.171875 C 10.46875 -15.617188 9.710938 -15.84375 8.703125 -15.84375 L 5.203125 -15.84375 Z M 5.203125 -2.765625 L 9 -2.765625 C 10.007812 -2.765625 10.789062 -3 11.34375 -3.46875 C 11.90625 -3.9375 12.1875 -4.59375 12.1875 -5.4375 C 12.1875 -6.3125 11.894531 -6.992188 11.3125 -7.484375 C 10.726562 -7.984375 9.941406 -8.234375 8.953125 -8.234375 L 5.203125 -8.234375 Z M 5.203125 -2.765625 "/></g></g></g><g fill="#ff5711" fill-opacity="1"><g transform="translate(163.435047, 169.229188)"><g><path d="M 3.5625 -15.21875 C 2.9375 -15.21875 2.425781 -15.398438 2.03125 -15.765625 C 1.632812 -16.140625 1.4375 -16.609375 1.4375 -17.171875 C 1.4375 -17.742188 1.632812 -18.207031 2.03125 -18.5625 C 2.425781 -18.925781 2.9375 -19.109375 3.5625 -19.109375 C 4.175781 -19.109375 4.679688 -18.925781 5.078125 -18.5625 C 5.484375 -18.207031 5.6875 -17.742188 5.6875 -17.171875 C 5.6875 -16.609375 5.484375 -16.140625 5.078125 -15.765625 C 4.679688 -15.398438 4.175781 -15.21875 3.5625 -15.21875 Z M 1.859375 0 L 1.859375 -13.171875 L 5.25 -13.171875 L 5.25 0 Z M 1.859375 0 "/></g></g></g><g fill="#ff5711" fill-opacity="1"><g transform="translate(170.521413, 169.229188)"><g><path d="M 1.71875 0 L 1.71875 -19.109375 L 5.125 -19.109375 L 5.125 -7.828125 L 9.796875 -13.171875 L 13.828125 -13.171875 L 8.4375 -7.171875 L 14.703125 0 L 10.453125 0 L 5.125 -6.609375 L 5.125 0 Z M 1.71875 0 "/></g></g></g><g fill="#ff5711" fill-opacity="1"><g transform="translate(185.596535, 169.229188)"><g><path d="M 8.125 0.3125 C 6.789062 0.3125 5.609375 0.03125 4.578125 -0.53125 C 3.554688 -1.09375 2.753906 -1.882812 2.171875 -2.90625 C 1.585938 -3.9375 1.296875 -5.128906 1.296875 -6.484375 C 1.296875 -7.835938 1.582031 -9.046875 2.15625 -10.109375 C 2.738281 -11.171875 3.535156 -12 4.546875 -12.59375 C 5.566406 -13.1875 6.769531 -13.484375 8.15625 -13.484375 C 9.445312 -13.484375 10.585938 -13.195312 11.578125 -12.625 C 12.566406 -12.0625 13.335938 -11.289062 13.890625 -10.3125 C 14.453125 -9.332031 14.734375 -8.238281 14.734375 -7.03125 C 14.734375 -6.84375 14.726562 -6.640625 14.71875 -6.421875 C 14.707031 -6.210938 14.695312 -5.992188 14.6875 -5.765625 L 4.671875 -5.765625 C 4.742188 -4.734375 5.101562 -3.925781 5.75 -3.34375 C 6.394531 -2.757812 7.175781 -2.46875 8.09375 -2.46875 C 8.78125 -2.46875 9.359375 -2.617188 9.828125 -2.921875 C 10.304688 -3.234375 10.660156 -3.640625 10.890625 -4.140625 L 14.328125 -4.140625 C 14.085938 -3.304688 13.675781 -2.546875 13.09375 -1.859375 C 12.519531 -1.179688 11.8125 -0.648438 10.96875 -0.265625 C 10.132812 0.117188 9.1875 0.3125 8.125 0.3125 Z M 8.15625 -10.71875 C 7.320312 -10.71875 6.582031 -10.484375 5.9375 -10.015625 C 5.300781 -9.546875 4.894531 -8.835938 4.71875 -7.890625 L 11.28125 -7.890625 C 11.226562 -8.753906 10.910156 -9.441406 10.328125 -9.953125 C 9.742188 -10.460938 9.019531 -10.71875 8.15625 -10.71875 Z M 8.15625 -10.71875 "/></g></g></g><g fill="#ff5711" fill-opacity="1"><g transform="translate(146.687865, 196.298549)"><g><path d="M 1.8125 0 L 1.8125 -18.578125 L 5.203125 -18.578125 L 5.203125 -2.65625 L 13.4375 -2.65625 L 13.4375 0 Z M 1.8125 0 "/></g></g></g><g fill="#ff5711" fill-opacity="1"><g transform="translate(161.311792, 196.298549)"><g><path d="M 8.125 0.3125 C 6.789062 0.3125 5.609375 0.03125 4.578125 -0.53125 C 3.554688 -1.09375 2.753906 -1.882812 2.171875 -2.90625 C 1.585938 -3.9375 1.296875 -5.128906 1.296875 -6.484375 C 1.296875 -7.835938 1.582031 -9.046875 2.15625 -10.109375 C 2.738281 -11.171875 3.535156 -12 4.546875 -12.59375 C 5.566406 -13.1875 6.769531 -13.484375 8.15625 -13.484375 C 9.445312 -13.484375 10.585938 -13.195312 11.578125 -12.625 C 12.566406 -12.0625 13.335938 -11.289062 13.890625 -10.3125 C 14.453125 -9.332031 14.734375 -8.238281 14.734375 -7.03125 C 14.734375 -6.84375 14.726562 -6.640625 14.71875 -6.421875 C 14.707031 -6.210938 14.695312 -5.992188 14.6875 -5.765625 L 4.671875 -5.765625 C 4.742188 -4.734375 5.101562 -3.925781 5.75 -3.34375 C 6.394531 -2.757812 7.175781 -2.46875 8.09375 -2.46875 C 8.78125 -2.46875 9.359375 -2.617188 9.828125 -2.921875 C 10.304688 -3.234375 10.660156 -3.640625 10.890625 -4.140625 L 14.328125 -4.140625 C 14.085938 -3.304688 13.675781 -2.546875 13.09375 -1.859375 C 12.519531 -1.179688 11.8125 -0.648438 10.96875 -0.265625 C 10.132812 0.117188 9.1875 0.3125 8.125 0.3125 Z M 8.15625 -10.71875 C 7.320312 -10.71875 6.582031 -10.484375 5.9375 -10.015625 C 5.300781 -9.546875 4.894531 -8.835938 4.71875 -7.890625 L 11.28125 -7.890625 C 11.226562 -8.753906 10.910156 -9.441406 10.328125 -9.953125 C 9.742188 -10.460938 9.019531 -10.71875 8.15625 -10.71875 Z M 8.15625 -10.71875 "/></g></g></g><g fill="#ff5711" fill-opacity="1"><g transform="translate(177.183137, 196.298549)"><g><path d="M 6.265625 0.3125 C 5.128906 0.3125 4.195312 0.132812 3.46875 -0.21875 C 2.75 -0.582031 2.210938 -1.066406 1.859375 -1.671875 C 1.503906 -2.273438 1.328125 -2.9375 1.328125 -3.65625 C 1.328125 -4.882812 1.800781 -5.878906 2.75 -6.640625 C 3.707031 -7.398438 5.144531 -7.78125 7.0625 -7.78125 L 10.40625 -7.78125 L 10.40625 -8.09375 C 10.40625 -9 10.144531 -9.660156 9.625 -10.078125 C 9.113281 -10.503906 8.476562 -10.71875 7.71875 -10.71875 C 7.03125 -10.71875 6.429688 -10.554688 5.921875 -10.234375 C 5.410156 -9.910156 5.09375 -9.425781 4.96875 -8.78125 L 1.640625 -8.78125 C 1.734375 -9.738281 2.054688 -10.570312 2.609375 -11.28125 C 3.171875 -11.988281 3.894531 -12.53125 4.78125 -12.90625 C 5.664062 -13.289062 6.65625 -13.484375 7.75 -13.484375 C 9.625 -13.484375 11.097656 -13.015625 12.171875 -12.078125 C 13.253906 -11.140625 13.796875 -9.8125 13.796875 -8.09375 L 13.796875 0 L 10.90625 0 L 10.59375 -2.125 C 10.207031 -1.414062 9.660156 -0.832031 8.953125 -0.375 C 8.253906 0.0820312 7.359375 0.3125 6.265625 0.3125 Z M 7.03125 -2.34375 C 8.007812 -2.34375 8.765625 -2.660156 9.296875 -3.296875 C 9.835938 -3.929688 10.179688 -4.71875 10.328125 -5.65625 L 7.4375 -5.65625 C 6.53125 -5.65625 5.878906 -5.488281 5.484375 -5.15625 C 5.097656 -4.832031 4.90625 -4.429688 4.90625 -3.953125 C 4.90625 -3.441406 5.097656 -3.046875 5.484375 -2.765625 C 5.878906 -2.484375 6.394531 -2.34375 7.03125 -2.34375 Z M 7.03125 -2.34375 "/></g></g></g><g fill="#ff5711" fill-opacity="1"><g transform="translate(192.497121, 196.298549)"><g><path d="M 7.171875 0.3125 C 6.003906 0.3125 4.976562 0.125 4.09375 -0.25 C 3.207031 -0.632812 2.5 -1.160156 1.96875 -1.828125 C 1.4375 -2.503906 1.117188 -3.285156 1.015625 -4.171875 L 4.4375 -4.171875 C 4.539062 -3.648438 4.828125 -3.207031 5.296875 -2.84375 C 5.765625 -2.488281 6.367188 -2.3125 7.109375 -2.3125 C 7.859375 -2.3125 8.40625 -2.460938 8.75 -2.765625 C 9.09375 -3.066406 9.265625 -3.410156 9.265625 -3.796875 C 9.265625 -4.359375 9.015625 -4.738281 8.515625 -4.9375 C 8.023438 -5.144531 7.335938 -5.347656 6.453125 -5.546875 C 5.878906 -5.671875 5.300781 -5.820312 4.71875 -6 C 4.132812 -6.175781 3.597656 -6.398438 3.109375 -6.671875 C 2.628906 -6.953125 2.238281 -7.304688 1.9375 -7.734375 C 1.632812 -8.171875 1.484375 -8.707031 1.484375 -9.34375 C 1.484375 -10.507812 1.945312 -11.488281 2.875 -12.28125 C 3.8125 -13.082031 5.117188 -13.484375 6.796875 -13.484375 C 8.347656 -13.484375 9.585938 -13.117188 10.515625 -12.390625 C 11.453125 -11.671875 12.007812 -10.671875 12.1875 -9.390625 L 8.96875 -9.390625 C 8.78125 -10.367188 8.046875 -10.859375 6.765625 -10.859375 C 6.128906 -10.859375 5.640625 -10.734375 5.296875 -10.484375 C 4.953125 -10.234375 4.78125 -9.925781 4.78125 -9.5625 C 4.78125 -9.164062 5.035156 -8.851562 5.546875 -8.625 C 6.054688 -8.394531 6.738281 -8.179688 7.59375 -7.984375 C 8.507812 -7.773438 9.351562 -7.539062 10.125 -7.28125 C 10.894531 -7.03125 11.507812 -6.648438 11.96875 -6.140625 C 12.425781 -5.640625 12.65625 -4.921875 12.65625 -3.984375 C 12.675781 -3.171875 12.460938 -2.4375 12.015625 -1.78125 C 11.578125 -1.125 10.941406 -0.609375 10.109375 -0.234375 C 9.273438 0.128906 8.296875 0.3125 7.171875 0.3125 Z M 7.171875 0.3125 "/></g></g></g><g fill="#ff5711" fill-opacity="1"><g transform="translate(206.430991, 196.298549)"><g><path d="M 3.5625 -15.21875 C 2.9375 -15.21875 2.425781 -15.398438 2.03125 -15.765625 C 1.632812 -16.140625 1.4375 -16.609375 1.4375 -17.171875 C 1.4375 -17.742188 1.632812 -18.207031 2.03125 -18.5625 C 2.425781 -18.925781 2.9375 -19.109375 3.5625 -19.109375 C 4.175781 -19.109375 4.679688 -18.925781 5.078125 -18.5625 C 5.484375 -18.207031 5.6875 -17.742188 5.6875 -17.171875 C 5.6875 -16.609375 5.484375 -16.140625 5.078125 -15.765625 C 4.679688 -15.398438 4.175781 -15.21875 3.5625 -15.21875 Z M 1.859375 0 L 1.859375 -13.171875 L 5.25 -13.171875 L 5.25 0 Z M 1.859375 0 "/></g></g></g><g fill="#ff5711" fill-opacity="1"><g transform="translate(213.517357, 196.298549)"><g><path d="M 1.71875 0 L 1.71875 -13.171875 L 4.71875 -13.171875 L 4.984375 -10.9375 C 5.390625 -11.71875 5.976562 -12.335938 6.75 -12.796875 C 7.519531 -13.253906 8.429688 -13.484375 9.484375 -13.484375 C 11.109375 -13.484375 12.367188 -12.96875 13.265625 -11.9375 C 14.171875 -10.914062 14.625 -9.414062 14.625 -7.4375 L 14.625 0 L 11.234375 0 L 11.234375 -7.109375 C 11.234375 -8.242188 11 -9.113281 10.53125 -9.71875 C 10.070312 -10.320312 9.359375 -10.625 8.390625 -10.625 C 7.429688 -10.625 6.644531 -10.285156 6.03125 -9.609375 C 5.425781 -8.929688 5.125 -7.992188 5.125 -6.796875 L 5.125 0 Z M 1.71875 0 "/></g></g></g><g fill="#ff5711" fill-opacity="1"><g transform="translate(229.654109, 196.298549)"><g><path d="M 7.296875 -3.921875 C 6.660156 -3.921875 6.066406 -3.992188 5.515625 -4.140625 L 4.546875 -3.15625 C 4.835938 -3 5.238281 -2.867188 5.75 -2.765625 C 6.269531 -2.660156 7.101562 -2.550781 8.25 -2.4375 C 10.007812 -2.28125 11.285156 -1.863281 12.078125 -1.1875 C 12.878906 -0.519531 13.28125 0.40625 13.28125 1.59375 C 13.28125 2.375 13.066406 3.113281 12.640625 3.8125 C 12.210938 4.507812 11.554688 5.070312 10.671875 5.5 C 9.785156 5.9375 8.65625 6.15625 7.28125 6.15625 C 5.394531 6.15625 3.878906 5.804688 2.734375 5.109375 C 1.585938 4.410156 1.015625 3.363281 1.015625 1.96875 C 1.015625 0.78125 1.585938 -0.242188 2.734375 -1.109375 C 2.378906 -1.273438 2.070312 -1.445312 1.8125 -1.625 C 1.5625 -1.800781 1.335938 -1.984375 1.140625 -2.171875 L 1.140625 -2.78125 L 3.453125 -5.234375 C 2.421875 -6.128906 1.90625 -7.285156 1.90625 -8.703125 C 1.90625 -9.585938 2.125 -10.394531 2.5625 -11.125 C 3 -11.851562 3.613281 -12.425781 4.40625 -12.84375 C 5.195312 -13.269531 6.160156 -13.484375 7.296875 -13.484375 C 8.046875 -13.484375 8.738281 -13.378906 9.375 -13.171875 L 14.359375 -13.171875 L 14.359375 -11.09375 L 12.109375 -10.9375 C 12.460938 -10.257812 12.640625 -9.515625 12.640625 -8.703125 C 12.640625 -7.816406 12.425781 -7.007812 12 -6.28125 C 11.570312 -5.5625 10.957031 -4.988281 10.15625 -4.5625 C 9.351562 -4.132812 8.398438 -3.921875 7.296875 -3.921875 Z M 7.296875 -6.53125 C 7.984375 -6.53125 8.550781 -6.710938 9 -7.078125 C 9.457031 -7.453125 9.6875 -7.988281 9.6875 -8.6875 C 9.6875 -9.375 9.457031 -9.898438 9 -10.265625 C 8.550781 -10.640625 7.984375 -10.828125 7.296875 -10.828125 C 6.578125 -10.828125 5.992188 -10.640625 5.546875 -10.265625 C 5.109375 -9.898438 4.890625 -9.375 4.890625 -8.6875 C 4.890625 -7.988281 5.109375 -7.453125 5.546875 -7.078125 C 5.992188 -6.710938 6.578125 -6.53125 7.296875 -6.53125 Z M 4.109375 1.625 C 4.109375 2.28125 4.414062 2.769531 5.03125 3.09375 C 5.644531 3.414062 6.394531 3.578125 7.28125 3.578125 C 8.125 3.578125 8.8125 3.40625 9.34375 3.0625 C 9.875 2.71875 10.140625 2.253906 10.140625 1.671875 C 10.140625 1.191406 9.96875 0.789062 9.625 0.46875 C 9.28125 0.15625 8.59375 -0.0351562 7.5625 -0.109375 C 6.84375 -0.160156 6.171875 -0.238281 5.546875 -0.34375 C 5.035156 -0.0625 4.664062 0.242188 4.4375 0.578125 C 4.21875 0.921875 4.109375 1.269531 4.109375 1.625 Z M 4.109375 1.625 "/></g></g></g><g fill="#ff5711" fill-opacity="1"><g transform="translate(146.687865, 223.367909)"><g><path d="M 6.125 0 L 6.125 -15.84375 L 0.71875 -15.84375 L 0.71875 -18.578125 L 14.96875 -18.578125 L 14.96875 -15.84375 L 9.53125 -15.84375 L 9.53125 0 Z M 6.125 0 "/></g></g></g><g fill="#ff5711" fill-opacity="1"><g transform="translate(162.373423, 223.367909)"><g><path d="M 8.125 0.3125 C 6.789062 0.3125 5.609375 0.03125 4.578125 -0.53125 C 3.554688 -1.09375 2.753906 -1.882812 2.171875 -2.90625 C 1.585938 -3.9375 1.296875 -5.128906 1.296875 -6.484375 C 1.296875 -7.835938 1.582031 -9.046875 2.15625 -10.109375 C 2.738281 -11.171875 3.535156 -12 4.546875 -12.59375 C 5.566406 -13.1875 6.769531 -13.484375 8.15625 -13.484375 C 9.445312 -13.484375 10.585938 -13.195312 11.578125 -12.625 C 12.566406 -12.0625 13.335938 -11.289062 13.890625 -10.3125 C 14.453125 -9.332031 14.734375 -8.238281 14.734375 -7.03125 C 14.734375 -6.84375 14.726562 -6.640625 14.71875 -6.421875 C 14.707031 -6.210938 14.695312 -5.992188 14.6875 -5.765625 L 4.671875 -5.765625 C 4.742188 -4.734375 5.101562 -3.925781 5.75 -3.34375 C 6.394531 -2.757812 7.175781 -2.46875 8.09375 -2.46875 C 8.78125 -2.46875 9.359375 -2.617188 9.828125 -2.921875 C 10.304688 -3.234375 10.660156 -3.640625 10.890625 -4.140625 L 14.328125 -4.140625 C 14.085938 -3.304688 13.675781 -2.546875 13.09375 -1.859375 C 12.519531 -1.179688 11.8125 -0.648438 10.96875 -0.265625 C 10.132812 0.117188 9.1875 0.3125 8.125 0.3125 Z M 8.15625 -10.71875 C 7.320312 -10.71875 6.582031 -10.484375 5.9375 -10.015625 C 5.300781 -9.546875 4.894531 -8.835938 4.71875 -7.890625 L 11.28125 -7.890625 C 11.226562 -8.753906 10.910156 -9.441406 10.328125 -9.953125 C 9.742188 -10.460938 9.019531 -10.71875 8.15625 -10.71875 Z M 8.15625 -10.71875 "/></g></g></g><g fill="#ff5711" fill-opacity="1"><g transform="translate(178.244767, 223.367909)"><g><path d="M 8.171875 0.3125 C 6.828125 0.3125 5.640625 0.0195312 4.609375 -0.5625 C 3.585938 -1.144531 2.78125 -1.957031 2.1875 -3 C 1.59375 -4.039062 1.296875 -5.234375 1.296875 -6.578125 C 1.296875 -7.921875 1.59375 -9.113281 2.1875 -10.15625 C 2.78125 -11.207031 3.585938 -12.023438 4.609375 -12.609375 C 5.640625 -13.191406 6.828125 -13.484375 8.171875 -13.484375 C 9.859375 -13.484375 11.273438 -13.046875 12.421875 -12.171875 C 13.578125 -11.296875 14.3125 -10.085938 14.625 -8.546875 L 11.046875 -8.546875 C 10.867188 -9.179688 10.519531 -9.679688 10 -10.046875 C 9.476562 -10.410156 8.863281 -10.59375 8.15625 -10.59375 C 7.21875 -10.59375 6.421875 -10.238281 5.765625 -9.53125 C 5.109375 -8.820312 4.78125 -7.835938 4.78125 -6.578125 C 4.78125 -5.328125 5.109375 -4.347656 5.765625 -3.640625 C 6.421875 -2.929688 7.21875 -2.578125 8.15625 -2.578125 C 8.863281 -2.578125 9.476562 -2.753906 10 -3.109375 C 10.519531 -3.460938 10.867188 -3.96875 11.046875 -4.625 L 14.625 -4.625 C 14.3125 -3.132812 13.578125 -1.9375 12.421875 -1.03125 C 11.273438 -0.132812 9.859375 0.3125 8.171875 0.3125 Z M 8.171875 0.3125 "/></g></g></g><g fill="#ff5711" fill-opacity="1"><g transform="translate(194.169188, 223.367909)"><g><path d="M 1.71875 0 L 1.71875 -19.109375 L 5.125 -19.109375 L 5.125 -11.15625 C 5.5625 -11.875 6.15625 -12.441406 6.90625 -12.859375 C 7.664062 -13.273438 8.53125 -13.484375 9.5 -13.484375 C 11.132812 -13.484375 12.394531 -12.96875 13.28125 -11.9375 C 14.175781 -10.914062 14.625 -9.414062 14.625 -7.4375 L 14.625 0 L 11.25 0 L 11.25 -7.109375 C 11.25 -8.242188 11.023438 -9.113281 10.578125 -9.71875 C 10.128906 -10.320312 9.414062 -10.625 8.4375 -10.625 C 7.488281 -10.625 6.695312 -10.285156 6.0625 -9.609375 C 5.4375 -8.929688 5.125 -7.992188 5.125 -6.796875 L 5.125 0 Z M 1.71875 0 "/></g></g></g><g fill="#ff5711" fill-opacity="1"><g transform="translate(210.30594, 223.367909)"><g><path d="M 1.71875 0 L 1.71875 -13.171875 L 4.71875 -13.171875 L 4.984375 -10.9375 C 5.390625 -11.71875 5.976562 -12.335938 6.75 -12.796875 C 7.519531 -13.253906 8.429688 -13.484375 9.484375 -13.484375 C 11.109375 -13.484375 12.367188 -12.96875 13.265625 -11.9375 C 14.171875 -10.914062 14.625 -9.414062 14.625 -7.4375 L 14.625 0 L 11.234375 0 L 11.234375 -7.109375 C 11.234375 -8.242188 11 -9.113281 10.53125 -9.71875 C 10.070312 -10.320312 9.359375 -10.625 8.390625 -10.625 C 7.429688 -10.625 6.644531 -10.285156 6.03125 -9.609375 C 5.425781 -8.929688 5.125 -7.992188 5.125 -6.796875 L 5.125 0 Z M 1.71875 0 "/></g></g></g><g fill="#ff5711" fill-opacity="1"><g transform="translate(226.442692, 223.367909)"><g><path d="M 8.046875 0.3125 C 6.765625 0.3125 5.613281 0.0195312 4.59375 -0.5625 C 3.582031 -1.144531 2.78125 -1.953125 2.1875 -2.984375 C 1.59375 -4.023438 1.296875 -5.222656 1.296875 -6.578125 C 1.296875 -7.941406 1.597656 -9.140625 2.203125 -10.171875 C 2.804688 -11.210938 3.613281 -12.023438 4.625 -12.609375 C 5.644531 -13.191406 6.789062 -13.484375 8.0625 -13.484375 C 9.320312 -13.484375 10.460938 -13.191406 11.484375 -12.609375 C 12.503906 -12.023438 13.304688 -11.210938 13.890625 -10.171875 C 14.484375 -9.140625 14.78125 -7.941406 14.78125 -6.578125 C 14.78125 -5.222656 14.484375 -4.023438 13.890625 -2.984375 C 13.304688 -1.953125 12.5 -1.144531 11.46875 -0.5625 C 10.4375 0.0195312 9.296875 0.3125 8.046875 0.3125 Z M 8.046875 -2.625 C 8.929688 -2.625 9.695312 -2.957031 10.34375 -3.625 C 11 -4.289062 11.328125 -5.273438 11.328125 -6.578125 C 11.328125 -7.890625 11 -8.878906 10.34375 -9.546875 C 9.695312 -10.210938 8.9375 -10.546875 8.0625 -10.546875 C 7.164062 -10.546875 6.394531 -10.210938 5.75 -9.546875 C 5.101562 -8.878906 4.78125 -7.890625 4.78125 -6.578125 C 4.78125 -5.273438 5.101562 -4.289062 5.75 -3.625 C 6.394531 -2.957031 7.160156 -2.625 8.046875 -2.625 Z M 8.046875 -2.625 "/></g></g></g><g fill="#ff5711" fill-opacity="1"><g transform="translate(242.526362, 223.367909)"><g><path d="M 1.71875 0 L 1.71875 -19.109375 L 5.125 -19.109375 L 5.125 0 Z M 1.71875 0 "/></g></g></g><g fill="#ff5711" fill-opacity="1"><g transform="translate(249.400403, 223.367909)"><g><path d="M 8.046875 0.3125 C 6.765625 0.3125 5.613281 0.0195312 4.59375 -0.5625 C 3.582031 -1.144531 2.78125 -1.953125 2.1875 -2.984375 C 1.59375 -4.023438 1.296875 -5.222656 1.296875 -6.578125 C 1.296875 -7.941406 1.597656 -9.140625 2.203125 -10.171875 C 2.804688 -11.210938 3.613281 -12.023438 4.625 -12.609375 C 5.644531 -13.191406 6.789062 -13.484375 8.0625 -13.484375 C 9.320312 -13.484375 10.460938 -13.191406 11.484375 -12.609375 C 12.503906 -12.023438 13.304688 -11.210938 13.890625 -10.171875 C 14.484375 -9.140625 14.78125 -7.941406 14.78125 -6.578125 C 14.78125 -5.222656 14.484375 -4.023438 13.890625 -2.984375 C 13.304688 -1.953125 12.5 -1.144531 11.46875 -0.5625 C 10.4375 0.0195312 9.296875 0.3125 8.046875 0.3125 Z M 8.046875 -2.625 C 8.929688 -2.625 9.695312 -2.957031 10.34375 -3.625 C 11 -4.289062 11.328125 -5.273438 11.328125 -6.578125 C 11.328125 -7.890625 11 -8.878906 10.34375 -9.546875 C 9.695312 -10.210938 8.9375 -10.546875 8.0625 -10.546875 C 7.164062 -10.546875 6.394531 -10.210938 5.75 -9.546875 C 5.101562 -8.878906 4.78125 -7.890625 4.78125 -6.578125 C 4.78125 -5.273438 5.101562 -4.289062 5.75 -3.625 C 6.394531 -2.957031 7.160156 -2.625 8.046875 -2.625 Z M 8.046875 -2.625 "/></g></g></g><g fill="#ff5711" fill-opacity="1"><g transform="translate(265.484072, 223.367909)"><g><path d="M 7.296875 -3.921875 C 6.660156 -3.921875 6.066406 -3.992188 5.515625 -4.140625 L 4.546875 -3.15625 C 4.835938 -3 5.238281 -2.867188 5.75 -2.765625 C 6.269531 -2.660156 7.101562 -2.550781 8.25 -2.4375 C 10.007812 -2.28125 11.285156 -1.863281 12.078125 -1.1875 C 12.878906 -0.519531 13.28125 0.40625 13.28125 1.59375 C 13.28125 2.375 13.066406 3.113281 12.640625 3.8125 C 12.210938 4.507812 11.554688 5.070312 10.671875 5.5 C 9.785156 5.9375 8.65625 6.15625 7.28125 6.15625 C 5.394531 6.15625 3.878906 5.804688 2.734375 5.109375 C 1.585938 4.410156 1.015625 3.363281 1.015625 1.96875 C 1.015625 0.78125 1.585938 -0.242188 2.734375 -1.109375 C 2.378906 -1.273438 2.070312 -1.445312 1.8125 -1.625 C 1.5625 -1.800781 1.335938 -1.984375 1.140625 -2.171875 L 1.140625 -2.78125 L 3.453125 -5.234375 C 2.421875 -6.128906 1.90625 -7.285156 1.90625 -8.703125 C 1.90625 -9.585938 2.125 -10.394531 2.5625 -11.125 C 3 -11.851562 3.613281 -12.425781 4.40625 -12.84375 C 5.195312 -13.269531 6.160156 -13.484375 7.296875 -13.484375 C 8.046875 -13.484375 8.738281 -13.378906 9.375 -13.171875 L 14.359375 -13.171875 L 14.359375 -11.09375 L 12.109375 -10.9375 C 12.460938 -10.257812 12.640625 -9.515625 12.640625 -8.703125 C 12.640625 -7.816406 12.425781 -7.007812 12 -6.28125 C 11.570312 -5.5625 10.957031 -4.988281 10.15625 -4.5625 C 9.351562 -4.132812 8.398438 -3.921875 7.296875 -3.921875 Z M 7.296875 -6.53125 C 7.984375 -6.53125 8.550781 -6.710938 9 -7.078125 C 9.457031 -7.453125 9.6875 -7.988281 9.6875 -8.6875 C 9.6875 -9.375 9.457031 -9.898438 9 -10.265625 C 8.550781 -10.640625 7.984375 -10.828125 7.296875 -10.828125 C 6.578125 -10.828125 5.992188 -10.640625 5.546875 -10.265625 C 5.109375 -9.898438 4.890625 -9.375 4.890625 -8.6875 C 4.890625 -7.988281 5.109375 -7.453125 5.546875 -7.078125 C 5.992188 -6.710938 6.578125 -6.53125 7.296875 -6.53125 Z M 4.109375 1.625 C 4.109375 2.28125 4.414062 2.769531 5.03125 3.09375 C 5.644531 3.414062 6.394531 3.578125 7.28125 3.578125 C 8.125 3.578125 8.8125 3.40625 9.34375 3.0625 C 9.875 2.71875 10.140625 2.253906 10.140625 1.671875 C 10.140625 1.191406 9.96875 0.789062 9.625 0.46875 C 9.28125 0.15625 8.59375 -0.0351562 7.5625 -0.109375 C 6.84375 -0.160156 6.171875 -0.238281 5.546875 -0.34375 C 5.035156 -0.0625 4.664062 0.242188 4.4375 0.578125 C 4.21875 0.921875 4.109375 1.269531 4.109375 1.625 Z M 4.109375 1.625 "/></g></g></g><g fill="#ff5711" fill-opacity="1"><g transform="translate(280.585732, 223.367909)"><g><path d="M 3.5625 -15.21875 C 2.9375 -15.21875 2.425781 -15.398438 2.03125 -15.765625 C 1.632812 -16.140625 1.4375 -16.609375 1.4375 -17.171875 C 1.4375 -17.742188 1.632812 -18.207031 2.03125 -18.5625 C 2.425781 -18.925781 2.9375 -19.109375 3.5625 -19.109375 C 4.175781 -19.109375 4.679688 -18.925781 5.078125 -18.5625 C 5.484375 -18.207031 5.6875 -17.742188 5.6875 -17.171875 C 5.6875 -16.609375 5.484375 -16.140625 5.078125 -15.765625 C 4.679688 -15.398438 4.175781 -15.21875 3.5625 -15.21875 Z M 1.859375 0 L 1.859375 -13.171875 L 5.25 -13.171875 L 5.25 0 Z M 1.859375 0 "/></g></g></g><g fill="#ff5711" fill-opacity="1"><g transform="translate(287.672098, 223.367909)"><g><path d="M 8.125 0.3125 C 6.789062 0.3125 5.609375 0.03125 4.578125 -0.53125 C 3.554688 -1.09375 2.753906 -1.882812 2.171875 -2.90625 C 1.585938 -3.9375 1.296875 -5.128906 1.296875 -6.484375 C 1.296875 -7.835938 1.582031 -9.046875 2.15625 -10.109375 C 2.738281 -11.171875 3.535156 -12 4.546875 -12.59375 C 5.566406 -13.1875 6.769531 -13.484375 8.15625 -13.484375 C 9.445312 -13.484375 10.585938 -13.195312 11.578125 -12.625 C 12.566406 -12.0625 13.335938 -11.289062 13.890625 -10.3125 C 14.453125 -9.332031 14.734375 -8.238281 14.734375 -7.03125 C 14.734375 -6.84375 14.726562 -6.640625 14.71875 -6.421875 C 14.707031 -6.210938 14.695312 -5.992188 14.6875 -5.765625 L 4.671875 -5.765625 C 4.742188 -4.734375 5.101562 -3.925781 5.75 -3.34375 C 6.394531 -2.757812 7.175781 -2.46875 8.09375 -2.46875 C 8.78125 -2.46875 9.359375 -2.617188 9.828125 -2.921875 C 10.304688 -3.234375 10.660156 -3.640625 10.890625 -4.140625 L 14.328125 -4.140625 C 14.085938 -3.304688 13.675781 -2.546875 13.09375 -1.859375 C 12.519531 -1.179688 11.8125 -0.648438 10.96875 -0.265625 C 10.132812 0.117188 9.1875 0.3125 8.125 0.3125 Z M 8.15625 -10.71875 C 7.320312 -10.71875 6.582031 -10.484375 5.9375 -10.015625 C 5.300781 -9.546875 4.894531 -8.835938 4.71875 -7.890625 L 11.28125 -7.890625 C 11.226562 -8.753906 10.910156 -9.441406 10.328125 -9.953125 C 9.742188 -10.460938 9.019531 -10.71875 8.15625 -10.71875 Z M 8.15625 -10.71875 "/></g></g></g><g fill="#ff5711" fill-opacity="1"><g transform="translate(303.543443, 223.367909)"><g><path d="M 7.171875 0.3125 C 6.003906 0.3125 4.976562 0.125 4.09375 -0.25 C 3.207031 -0.632812 2.5 -1.160156 1.96875 -1.828125 C 1.4375 -2.503906 1.117188 -3.285156 1.015625 -4.171875 L 4.4375 -4.171875 C 4.539062 -3.648438 4.828125 -3.207031 5.296875 -2.84375 C 5.765625 -2.488281 6.367188 -2.3125 7.109375 -2.3125 C 7.859375 -2.3125 8.40625 -2.460938 8.75 -2.765625 C 9.09375 -3.066406 9.265625 -3.410156 9.265625 -3.796875 C 9.265625 -4.359375 9.015625 -4.738281 8.515625 -4.9375 C 8.023438 -5.144531 7.335938 -5.347656 6.453125 -5.546875 C 5.878906 -5.671875 5.300781 -5.820312 4.71875 -6 C 4.132812 -6.175781 3.597656 -6.398438 3.109375 -6.671875 C 2.628906 -6.953125 2.238281 -7.304688 1.9375 -7.734375 C 1.632812 -8.171875 1.484375 -8.707031 1.484375 -9.34375 C 1.484375 -10.507812 1.945312 -11.488281 2.875 -12.28125 C 3.8125 -13.082031 5.117188 -13.484375 6.796875 -13.484375 C 8.347656 -13.484375 9.585938 -13.117188 10.515625 -12.390625 C 11.453125 -11.671875 12.007812 -10.671875 12.1875 -9.390625 L 8.96875 -9.390625 C 8.78125 -10.367188 8.046875 -10.859375 6.765625 -10.859375 C 6.128906 -10.859375 5.640625 -10.734375 5.296875 -10.484375 C 4.953125 -10.234375 4.78125 -9.925781 4.78125 -9.5625 C 4.78125 -9.164062 5.035156 -8.851562 5.546875 -8.625 C 6.054688 -8.394531 6.738281 -8.179688 7.59375 -7.984375 C 8.507812 -7.773438 9.351562 -7.539062 10.125 -7.28125 C 10.894531 -7.03125 11.507812 -6.648438 11.96875 -6.140625 C 12.425781 -5.640625 12.65625 -4.921875 12.65625 -3.984375 C 12.675781 -3.171875 12.460938 -2.4375 12.015625 -1.78125 C 11.578125 -1.125 10.941406 -0.609375 10.109375 -0.234375 C 9.273438 0.128906 8.296875 0.3125 7.171875 0.3125 Z M 7.171875 0.3125 "/></g></g></g></svg>