<svg xmlns="http://www.w3.org/2000/svg" xmlns:xlink="http://www.w3.org/1999/xlink" width="500" zoomAndPan="magnify" viewBox="0 0 375 374.999991" height="500" preserveAspectRatio="xMidYMid meet" version="1.0"><defs><g/></defs><path stroke-linecap="butt" transform="matrix(0.422297, 0, 0, 0.422297, 42.533776, 187.44822)" fill="none" stroke-linejoin="miter" d="M 30.00102 3.998366 L 114.000274 3.998366 " stroke="#ff5711" stroke-width="8" stroke-opacity="1" stroke-miterlimit="4"/><path stroke-linecap="round" transform="matrix(0.422297, 0, 0, 0.422297, 42.533776, 187.44822)" fill="none" stroke-linejoin="round" d="M 3.999268 3.998366 C 3.999268 -2.624634 9.373519 -7.998885 15.996519 -7.998885 C 22.628769 -7.998885 28.00302 -2.624634 28.00302 3.998366 C 28.00302 10.630616 22.628769 15.995617 15.996519 15.995617 C 9.373519 15.995617 3.999268 10.630616 3.999268 3.998366 " stroke="#ff5711" stroke-width="8" stroke-opacity="1" stroke-miterlimit="4"/><path stroke-linecap="round" transform="matrix(0.422297, 0, 0, 0.422297, 42.533776, 187.44822)" fill="none" stroke-linejoin="round" d="M 140.002025 3.998366 C 140.002025 10.630616 134.627775 15.995617 127.995525 15.995617 C 121.372524 15.995617 115.998274 10.630616 115.998274 3.998366 C 115.998274 -2.624634 121.372524 -7.998885 127.995525 -7.998885 C 134.627775 -7.998885 140.002025 -2.624634 140.002025 3.998366 " stroke="#ff5711" stroke-width="8" stroke-opacity="1" stroke-miterlimit="4"/><path stroke-linecap="butt" transform="matrix(0.422297, 0, 0, 0.422297, 42.533776, 219.476059)" fill="none" stroke-linejoin="miter" d="M 30.00102 33.560194 L 57.214521 33.560194 C 61.136521 33.560194 64.901271 32.006193 67.667022 29.231193 C 70.442022 26.465443 71.996022 22.700693 71.996022 18.778693 C 71.996022 14.865943 73.559272 11.101192 76.325022 8.326192 C 79.100022 5.560442 82.864772 3.997192 86.777522 3.997192 L 114.000274 3.997192 " stroke="#ff5711" stroke-width="8" stroke-opacity="1" stroke-miterlimit="4"/><path stroke-linecap="round" transform="matrix(0.422297, 0, 0, 0.422297, 42.533776, 219.476059)" fill="none" stroke-linejoin="round" d="M 3.999268 33.560194 C 3.999268 26.937193 9.373519 21.562943 15.996519 21.562943 C 22.628769 21.562943 28.00302 26.937193 28.00302 33.560194 C 28.00302 40.192444 22.628769 45.566694 15.996519 45.566694 C 9.373519 45.566694 3.999268 40.192444 3.999268 33.560194 " stroke="#ff5711" stroke-width="8" stroke-opacity="1" stroke-miterlimit="4"/><path stroke-linecap="round" transform="matrix(0.422297, 0, 0, 0.422297, 42.533776, 219.476059)" fill="none" stroke-linejoin="round" d="M 140.002025 3.997192 C 140.002025 10.629442 134.627775 16.003693 127.995525 16.003693 C 121.372524 16.003693 115.998274 10.629442 115.998274 3.997192 C 115.998274 -2.625808 121.372524 -8.000059 127.995525 -8.000059 C 134.627775 -8.000059 140.002025 -2.625808 140.002025 3.997192 " stroke="#ff5711" stroke-width="8" stroke-opacity="1" stroke-miterlimit="4"/><path stroke-linecap="butt" transform="matrix(0.422297, 0, 0, 0.422297, 42.533776, 139.094316)" fill="none" stroke-linejoin="miter" d="M 30.00102 4.003909 L 52.672771 4.003909 C 57.797271 4.003909 62.709021 6.038909 66.335021 9.664909 C 69.961022 13.290909 71.996022 18.20266 71.996022 23.32716 C 71.996022 28.46091 74.040272 33.37266 77.657022 36.99866 C 81.283022 40.624661 86.204022 42.659661 91.328523 42.659661 L 114.000274 42.659661 " stroke="#ff5711" stroke-width="8" stroke-opacity="1" stroke-miterlimit="4"/><path stroke-linecap="round" transform="matrix(0.422297, 0, 0, 0.422297, 42.533776, 139.094316)" fill="none" stroke-linejoin="round" d="M 3.999268 4.003909 C 3.999268 -2.628342 9.373519 -8.002592 15.996519 -8.002592 C 22.628769 -8.002592 28.00302 -2.628342 28.00302 4.003909 C 28.00302 10.626909 22.628769 16.001159 15.996519 16.001159 C 9.373519 16.001159 3.999268 10.626909 3.999268 4.003909 " stroke="#ff5711" stroke-width="8" stroke-opacity="1" stroke-miterlimit="4"/><path stroke-linecap="round" transform="matrix(0.422297, 0, 0, 0.422297, 42.533776, 139.094316)" fill="none" stroke-linejoin="round" d="M 140.002025 42.659661 C 140.002025 49.291911 134.627775 54.656911 127.995525 54.656911 C 121.372524 54.656911 115.998274 49.291911 115.998274 42.659661 C 115.998274 36.03666 121.372524 30.66241 127.995525 30.66241 C 134.627775 30.66241 140.002025 36.03666 140.002025 42.659661 " stroke="#ff5711" stroke-width="8" stroke-opacity="1" stroke-miterlimit="4"/><g fill="#ff5711" fill-opacity="1"><g transform="translate(110.101336, 164.201512)"><g><path d="M 2.296875 0 L 2.296875 -23.671875 L 11.8125 -23.671875 C 14.269531 -23.671875 16.144531 -23.101562 17.4375 -21.96875 C 18.738281 -20.832031 19.390625 -19.375 19.390625 -17.59375 C 19.390625 -16.101562 18.988281 -14.910156 18.1875 -14.015625 C 17.382812 -13.128906 16.40625 -12.53125 15.25 -12.21875 C 16.601562 -11.945312 17.71875 -11.273438 18.59375 -10.203125 C 19.476562 -9.128906 19.921875 -7.882812 19.921875 -6.46875 C 19.921875 -4.59375 19.242188 -3.046875 17.890625 -1.828125 C 16.535156 -0.609375 14.617188 0 12.140625 0 Z M 6.625 -13.734375 L 11.15625 -13.734375 C 12.375 -13.734375 13.3125 -14.015625 13.96875 -14.578125 C 14.625 -15.140625 14.953125 -15.941406 14.953125 -16.984375 C 14.953125 -17.972656 14.628906 -18.753906 13.984375 -19.328125 C 13.347656 -19.910156 12.382812 -20.203125 11.09375 -20.203125 L 6.625 -20.203125 Z M 6.625 -3.515625 L 11.46875 -3.515625 C 12.75 -3.515625 13.742188 -3.8125 14.453125 -4.40625 C 15.171875 -5.007812 15.53125 -5.851562 15.53125 -6.9375 C 15.53125 -8.039062 15.15625 -8.90625 14.40625 -9.53125 C 13.664062 -10.164062 12.664062 -10.484375 11.40625 -10.484375 L 6.625 -10.484375 Z M 6.625 -3.515625 "/></g></g></g><g fill="#ff5711" fill-opacity="1"><g transform="translate(131.443916, 164.201512)"><g><path d="M 4.53125 -19.390625 C 3.738281 -19.390625 3.085938 -19.625 2.578125 -20.09375 C 2.078125 -20.5625 1.828125 -21.160156 1.828125 -21.890625 C 1.828125 -22.609375 2.078125 -23.195312 2.578125 -23.65625 C 3.085938 -24.125 3.738281 -24.359375 4.53125 -24.359375 C 5.320312 -24.359375 5.96875 -24.125 6.46875 -23.65625 C 6.976562 -23.195312 7.234375 -22.609375 7.234375 -21.890625 C 7.234375 -21.160156 6.976562 -20.5625 6.46875 -20.09375 C 5.96875 -19.625 5.320312 -19.390625 4.53125 -19.390625 Z M 2.375 0 L 2.375 -16.78125 L 6.703125 -16.78125 L 6.703125 0 Z M 2.375 0 "/></g></g></g><g fill="#ff5711" fill-opacity="1"><g transform="translate(140.474767, 164.201512)"><g><path d="M 2.203125 0 L 2.203125 -24.359375 L 6.53125 -24.359375 L 6.53125 -9.984375 L 12.484375 -16.78125 L 17.625 -16.78125 L 10.75 -9.140625 L 18.734375 0 L 13.328125 0 L 6.53125 -8.421875 L 6.53125 0 Z M 2.203125 0 "/></g></g></g><g fill="#ff5711" fill-opacity="1"><g transform="translate(159.68647, 164.201512)"><g><path d="M 10.34375 0.40625 C 8.65625 0.40625 7.15625 0.046875 5.84375 -0.671875 C 4.539062 -1.398438 3.515625 -2.414062 2.765625 -3.71875 C 2.023438 -5.03125 1.65625 -6.539062 1.65625 -8.25 C 1.65625 -9.988281 2.019531 -11.535156 2.75 -12.890625 C 3.488281 -14.242188 4.503906 -15.296875 5.796875 -16.046875 C 7.097656 -16.804688 8.628906 -17.1875 10.390625 -17.1875 C 12.035156 -17.1875 13.488281 -16.820312 14.75 -16.09375 C 16.007812 -15.375 16.992188 -14.390625 17.703125 -13.140625 C 18.421875 -11.890625 18.78125 -10.5 18.78125 -8.96875 C 18.78125 -8.71875 18.769531 -8.457031 18.75 -8.1875 C 18.738281 -7.914062 18.722656 -7.632812 18.703125 -7.34375 L 5.953125 -7.34375 C 6.046875 -6.03125 6.503906 -5 7.328125 -4.25 C 8.148438 -3.507812 9.144531 -3.140625 10.3125 -3.140625 C 11.195312 -3.140625 11.9375 -3.335938 12.53125 -3.734375 C 13.132812 -4.128906 13.582031 -4.644531 13.875 -5.28125 L 18.265625 -5.28125 C 17.953125 -4.21875 17.425781 -3.25 16.6875 -2.375 C 15.957031 -1.507812 15.054688 -0.828125 13.984375 -0.328125 C 12.910156 0.160156 11.695312 0.40625 10.34375 0.40625 Z M 10.390625 -13.671875 C 9.328125 -13.671875 8.390625 -13.367188 7.578125 -12.765625 C 6.765625 -12.171875 6.242188 -11.265625 6.015625 -10.046875 L 14.375 -10.046875 C 14.3125 -11.148438 13.90625 -12.03125 13.15625 -12.6875 C 12.414062 -13.34375 11.492188 -13.671875 10.390625 -13.671875 Z M 10.390625 -13.671875 "/></g></g></g><g fill="#ff5711" fill-opacity="1"><g transform="translate(110.101336, 198.407591)"><g><path d="M 2.296875 0 L 2.296875 -23.671875 L 6.625 -23.671875 L 6.625 -3.375 L 17.109375 -3.375 L 17.109375 0 Z M 2.296875 0 "/></g></g></g><g fill="#ff5711" fill-opacity="1"><g transform="translate(128.738039, 198.407591)"><g><path d="M 10.34375 0.40625 C 8.65625 0.40625 7.15625 0.046875 5.84375 -0.671875 C 4.539062 -1.398438 3.515625 -2.414062 2.765625 -3.71875 C 2.023438 -5.03125 1.65625 -6.539062 1.65625 -8.25 C 1.65625 -9.988281 2.019531 -11.535156 2.75 -12.890625 C 3.488281 -14.242188 4.503906 -15.296875 5.796875 -16.046875 C 7.097656 -16.804688 8.628906 -17.1875 10.390625 -17.1875 C 12.035156 -17.1875 13.488281 -16.820312 14.75 -16.09375 C 16.007812 -15.375 16.992188 -14.390625 17.703125 -13.140625 C 18.421875 -11.890625 18.78125 -10.5 18.78125 -8.96875 C 18.78125 -8.71875 18.769531 -8.457031 18.75 -8.1875 C 18.738281 -7.914062 18.722656 -7.632812 18.703125 -7.34375 L 5.953125 -7.34375 C 6.046875 -6.03125 6.503906 -5 7.328125 -4.25 C 8.148438 -3.507812 9.144531 -3.140625 10.3125 -3.140625 C 11.195312 -3.140625 11.9375 -3.335938 12.53125 -3.734375 C 13.132812 -4.128906 13.582031 -4.644531 13.875 -5.28125 L 18.265625 -5.28125 C 17.953125 -4.21875 17.425781 -3.25 16.6875 -2.375 C 15.957031 -1.507812 15.054688 -0.828125 13.984375 -0.328125 C 12.910156 0.160156 11.695312 0.40625 10.34375 0.40625 Z M 10.390625 -13.671875 C 9.328125 -13.671875 8.390625 -13.367188 7.578125 -12.765625 C 6.765625 -12.171875 6.242188 -11.265625 6.015625 -10.046875 L 14.375 -10.046875 C 14.3125 -11.148438 13.90625 -12.03125 13.15625 -12.6875 C 12.414062 -13.34375 11.492188 -13.671875 10.390625 -13.671875 Z M 10.390625 -13.671875 "/></g></g></g><g fill="#ff5711" fill-opacity="1"><g transform="translate(148.964446, 198.407591)"><g><path d="M 7.984375 0.40625 C 6.535156 0.40625 5.347656 0.175781 4.421875 -0.28125 C 3.503906 -0.75 2.816406 -1.363281 2.359375 -2.125 C 1.910156 -2.894531 1.6875 -3.742188 1.6875 -4.671875 C 1.6875 -6.222656 2.296875 -7.484375 3.515625 -8.453125 C 4.734375 -9.421875 6.5625 -9.90625 9 -9.90625 L 13.265625 -9.90625 L 13.265625 -10.3125 C 13.265625 -11.46875 12.9375 -12.316406 12.28125 -12.859375 C 11.625 -13.398438 10.8125 -13.671875 9.84375 -13.671875 C 8.96875 -13.671875 8.203125 -13.460938 7.546875 -13.046875 C 6.890625 -12.628906 6.484375 -12.015625 6.328125 -11.203125 L 2.09375 -11.203125 C 2.207031 -12.421875 2.617188 -13.476562 3.328125 -14.375 C 4.035156 -15.28125 4.953125 -15.972656 6.078125 -16.453125 C 7.210938 -16.941406 8.476562 -17.1875 9.875 -17.1875 C 12.269531 -17.1875 14.15625 -16.585938 15.53125 -15.390625 C 16.90625 -14.191406 17.59375 -12.5 17.59375 -10.3125 L 17.59375 0 L 13.90625 0 L 13.5 -2.703125 C 13 -1.804688 12.300781 -1.0625 11.40625 -0.46875 C 10.519531 0.113281 9.378906 0.40625 7.984375 0.40625 Z M 8.96875 -2.984375 C 10.207031 -2.984375 11.171875 -3.382812 11.859375 -4.1875 C 12.546875 -5 12.976562 -6.003906 13.15625 -7.203125 L 9.46875 -7.203125 C 8.320312 -7.203125 7.5 -6.992188 7 -6.578125 C 6.507812 -6.160156 6.265625 -5.648438 6.265625 -5.046875 C 6.265625 -4.390625 6.507812 -3.878906 7 -3.515625 C 7.5 -3.160156 8.15625 -2.984375 8.96875 -2.984375 Z M 8.96875 -2.984375 "/></g></g></g><g fill="#ff5711" fill-opacity="1"><g transform="translate(168.480558, 198.407591)"><g><path d="M 9.140625 0.40625 C 7.648438 0.40625 6.335938 0.164062 5.203125 -0.3125 C 4.078125 -0.800781 3.175781 -1.472656 2.5 -2.328125 C 1.820312 -3.191406 1.414062 -4.1875 1.28125 -5.3125 L 5.65625 -5.3125 C 5.789062 -4.65625 6.15625 -4.09375 6.75 -3.625 C 7.34375 -3.164062 8.113281 -2.9375 9.0625 -2.9375 C 10.007812 -2.9375 10.703125 -3.128906 11.140625 -3.515625 C 11.585938 -3.898438 11.8125 -4.34375 11.8125 -4.84375 C 11.8125 -5.5625 11.492188 -6.050781 10.859375 -6.3125 C 10.222656 -6.570312 9.34375 -6.820312 8.21875 -7.0625 C 7.5 -7.226562 6.765625 -7.421875 6.015625 -7.640625 C 5.273438 -7.867188 4.59375 -8.15625 3.96875 -8.5 C 3.351562 -8.851562 2.851562 -9.304688 2.46875 -9.859375 C 2.082031 -10.410156 1.890625 -11.09375 1.890625 -11.90625 C 1.890625 -13.394531 2.484375 -14.644531 3.671875 -15.65625 C 4.859375 -16.675781 6.519531 -17.1875 8.65625 -17.1875 C 10.644531 -17.1875 12.226562 -16.722656 13.40625 -15.796875 C 14.59375 -14.867188 15.300781 -13.59375 15.53125 -11.96875 L 11.4375 -11.96875 C 11.1875 -13.207031 10.25 -13.828125 8.625 -13.828125 C 7.8125 -13.828125 7.1875 -13.671875 6.75 -13.359375 C 6.3125 -13.046875 6.09375 -12.648438 6.09375 -12.171875 C 6.09375 -11.679688 6.414062 -11.285156 7.0625 -10.984375 C 7.71875 -10.691406 8.585938 -10.425781 9.671875 -10.1875 C 10.847656 -9.914062 11.925781 -9.613281 12.90625 -9.28125 C 13.882812 -8.957031 14.664062 -8.472656 15.25 -7.828125 C 15.84375 -7.179688 16.140625 -6.265625 16.140625 -5.078125 C 16.160156 -4.035156 15.890625 -3.097656 15.328125 -2.265625 C 14.765625 -1.429688 13.953125 -0.773438 12.890625 -0.296875 C 11.828125 0.171875 10.578125 0.40625 9.140625 0.40625 Z M 9.140625 0.40625 "/></g></g></g><g fill="#ff5711" fill-opacity="1"><g transform="translate(186.237851, 198.407591)"><g><path d="M 4.53125 -19.390625 C 3.738281 -19.390625 3.085938 -19.625 2.578125 -20.09375 C 2.078125 -20.5625 1.828125 -21.160156 1.828125 -21.890625 C 1.828125 -22.609375 2.078125 -23.195312 2.578125 -23.65625 C 3.085938 -24.125 3.738281 -24.359375 4.53125 -24.359375 C 5.320312 -24.359375 5.96875 -24.125 6.46875 -23.65625 C 6.976562 -23.195312 7.234375 -22.609375 7.234375 -21.890625 C 7.234375 -21.160156 6.976562 -20.5625 6.46875 -20.09375 C 5.96875 -19.625 5.320312 -19.390625 4.53125 -19.390625 Z M 2.375 0 L 2.375 -16.78125 L 6.703125 -16.78125 L 6.703125 0 Z M 2.375 0 "/></g></g></g><g fill="#ff5711" fill-opacity="1"><g transform="translate(195.268702, 198.407591)"><g><path d="M 2.203125 0 L 2.203125 -16.78125 L 6.015625 -16.78125 L 6.359375 -13.9375 C 6.878906 -14.925781 7.628906 -15.710938 8.609375 -16.296875 C 9.585938 -16.890625 10.742188 -17.1875 12.078125 -17.1875 C 14.148438 -17.1875 15.757812 -16.53125 16.90625 -15.21875 C 18.0625 -13.914062 18.640625 -12 18.640625 -9.46875 L 18.640625 0 L 14.3125 0 L 14.3125 -9.0625 C 14.3125 -10.507812 14.015625 -11.613281 13.421875 -12.375 C 12.835938 -13.144531 11.925781 -13.53125 10.6875 -13.53125 C 9.46875 -13.53125 8.46875 -13.097656 7.6875 -12.234375 C 6.914062 -11.378906 6.53125 -10.1875 6.53125 -8.65625 L 6.53125 0 Z M 2.203125 0 "/></g></g></g><g fill="#ff5711" fill-opacity="1"><g transform="translate(215.83334, 198.407591)"><g><path d="M 9.296875 -5 C 8.484375 -5 7.726562 -5.09375 7.03125 -5.28125 L 5.78125 -4.03125 C 6.164062 -3.820312 6.6875 -3.648438 7.34375 -3.515625 C 8 -3.378906 9.054688 -3.242188 10.515625 -3.109375 C 12.753906 -2.910156 14.378906 -2.378906 15.390625 -1.515625 C 16.398438 -0.660156 16.90625 0.519531 16.90625 2.03125 C 16.90625 3.019531 16.632812 3.957031 16.09375 4.84375 C 15.5625 5.738281 14.726562 6.460938 13.59375 7.015625 C 12.46875 7.566406 11.023438 7.84375 9.265625 7.84375 C 6.878906 7.84375 4.953125 7.394531 3.484375 6.5 C 2.015625 5.613281 1.28125 4.28125 1.28125 2.5 C 1.28125 0.988281 2.015625 -0.316406 3.484375 -1.421875 C 3.035156 -1.617188 2.644531 -1.832031 2.3125 -2.0625 C 1.988281 -2.289062 1.703125 -2.53125 1.453125 -2.78125 L 1.453125 -3.546875 L 4.390625 -6.671875 C 3.085938 -7.816406 2.4375 -9.289062 2.4375 -11.09375 C 2.4375 -12.21875 2.710938 -13.242188 3.265625 -14.171875 C 3.816406 -15.097656 4.597656 -15.832031 5.609375 -16.375 C 6.628906 -16.914062 7.859375 -17.1875 9.296875 -17.1875 C 10.242188 -17.1875 11.125 -17.050781 11.9375 -16.78125 L 18.296875 -16.78125 L 18.296875 -14.140625 L 15.421875 -13.9375 C 15.878906 -13.082031 16.109375 -12.132812 16.109375 -11.09375 C 16.109375 -9.96875 15.835938 -8.941406 15.296875 -8.015625 C 14.753906 -7.085938 13.96875 -6.351562 12.9375 -5.8125 C 11.914062 -5.269531 10.703125 -5 9.296875 -5 Z M 9.296875 -8.328125 C 10.179688 -8.328125 10.910156 -8.5625 11.484375 -9.03125 C 12.054688 -9.507812 12.34375 -10.1875 12.34375 -11.0625 C 12.34375 -11.9375 12.054688 -12.609375 11.484375 -13.078125 C 10.910156 -13.554688 10.179688 -13.796875 9.296875 -13.796875 C 8.378906 -13.796875 7.632812 -13.554688 7.0625 -13.078125 C 6.5 -12.609375 6.21875 -11.9375 6.21875 -11.0625 C 6.21875 -10.1875 6.5 -9.507812 7.0625 -9.03125 C 7.632812 -8.5625 8.378906 -8.328125 9.296875 -8.328125 Z M 5.25 2.0625 C 5.25 2.894531 5.632812 3.519531 6.40625 3.9375 C 7.1875 4.351562 8.140625 4.5625 9.265625 4.5625 C 10.347656 4.5625 11.226562 4.34375 11.90625 3.90625 C 12.582031 3.46875 12.921875 2.875 12.921875 2.125 C 12.921875 1.519531 12.703125 1.015625 12.265625 0.609375 C 11.828125 0.203125 10.953125 -0.046875 9.640625 -0.140625 C 8.710938 -0.203125 7.851562 -0.300781 7.0625 -0.4375 C 6.414062 -0.0820312 5.953125 0.304688 5.671875 0.734375 C 5.390625 1.171875 5.25 1.613281 5.25 2.0625 Z M 5.25 2.0625 "/></g></g></g><g fill="#ff5711" fill-opacity="1"><g transform="translate(110.101336, 232.613671)"><g><path d="M 7.8125 0 L 7.8125 -20.203125 L 0.90625 -20.203125 L 0.90625 -23.671875 L 19.078125 -23.671875 L 19.078125 -20.203125 L 12.140625 -20.203125 L 12.140625 0 Z M 7.8125 0 "/></g></g></g><g fill="#ff5711" fill-opacity="1"><g transform="translate(130.090974, 232.613671)"><g><path d="M 10.34375 0.40625 C 8.65625 0.40625 7.15625 0.046875 5.84375 -0.671875 C 4.539062 -1.398438 3.515625 -2.414062 2.765625 -3.71875 C 2.023438 -5.03125 1.65625 -6.539062 1.65625 -8.25 C 1.65625 -9.988281 2.019531 -11.535156 2.75 -12.890625 C 3.488281 -14.242188 4.503906 -15.296875 5.796875 -16.046875 C 7.097656 -16.804688 8.628906 -17.1875 10.390625 -17.1875 C 12.035156 -17.1875 13.488281 -16.820312 14.75 -16.09375 C 16.007812 -15.375 16.992188 -14.390625 17.703125 -13.140625 C 18.421875 -11.890625 18.78125 -10.5 18.78125 -8.96875 C 18.78125 -8.71875 18.769531 -8.457031 18.75 -8.1875 C 18.738281 -7.914062 18.722656 -7.632812 18.703125 -7.34375 L 5.953125 -7.34375 C 6.046875 -6.03125 6.503906 -5 7.328125 -4.25 C 8.148438 -3.507812 9.144531 -3.140625 10.3125 -3.140625 C 11.195312 -3.140625 11.9375 -3.335938 12.53125 -3.734375 C 13.132812 -4.128906 13.582031 -4.644531 13.875 -5.28125 L 18.265625 -5.28125 C 17.953125 -4.21875 17.425781 -3.25 16.6875 -2.375 C 15.957031 -1.507812 15.054688 -0.828125 13.984375 -0.328125 C 12.910156 0.160156 11.695312 0.40625 10.34375 0.40625 Z M 10.390625 -13.671875 C 9.328125 -13.671875 8.390625 -13.367188 7.578125 -12.765625 C 6.765625 -12.171875 6.242188 -11.265625 6.015625 -10.046875 L 14.375 -10.046875 C 14.3125 -11.148438 13.90625 -12.03125 13.15625 -12.6875 C 12.414062 -13.34375 11.492188 -13.671875 10.390625 -13.671875 Z M 10.390625 -13.671875 "/></g></g></g><g fill="#ff5711" fill-opacity="1"><g transform="translate(150.31738, 232.613671)"><g><path d="M 10.421875 0.40625 C 8.703125 0.40625 7.1875 0.0351562 5.875 -0.703125 C 4.570312 -1.453125 3.539062 -2.488281 2.78125 -3.8125 C 2.03125 -5.144531 1.65625 -6.671875 1.65625 -8.390625 C 1.65625 -10.097656 2.03125 -11.617188 2.78125 -12.953125 C 3.539062 -14.285156 4.570312 -15.320312 5.875 -16.0625 C 7.1875 -16.8125 8.703125 -17.1875 10.421875 -17.1875 C 12.554688 -17.1875 14.359375 -16.625 15.828125 -15.5 C 17.296875 -14.382812 18.234375 -12.847656 18.640625 -10.890625 L 14.078125 -10.890625 C 13.847656 -11.703125 13.398438 -12.335938 12.734375 -12.796875 C 12.066406 -13.265625 11.285156 -13.5 10.390625 -13.5 C 9.191406 -13.5 8.175781 -13.046875 7.34375 -12.140625 C 6.507812 -11.242188 6.09375 -9.992188 6.09375 -8.390625 C 6.09375 -6.785156 6.507812 -5.53125 7.34375 -4.625 C 8.175781 -3.726562 9.191406 -3.28125 10.390625 -3.28125 C 11.285156 -3.28125 12.066406 -3.503906 12.734375 -3.953125 C 13.398438 -4.410156 13.847656 -5.054688 14.078125 -5.890625 L 18.640625 -5.890625 C 18.234375 -3.992188 17.296875 -2.46875 15.828125 -1.3125 C 14.359375 -0.164062 12.554688 0.40625 10.421875 0.40625 Z M 10.421875 0.40625 "/></g></g></g><g fill="#ff5711" fill-opacity="1"><g transform="translate(170.611434, 232.613671)"><g><path d="M 2.203125 0 L 2.203125 -24.359375 L 6.53125 -24.359375 L 6.53125 -14.203125 C 7.09375 -15.128906 7.851562 -15.859375 8.8125 -16.390625 C 9.769531 -16.921875 10.867188 -17.1875 12.109375 -17.1875 C 14.179688 -17.1875 15.785156 -16.53125 16.921875 -15.21875 C 18.066406 -13.914062 18.640625 -12 18.640625 -9.46875 L 18.640625 0 L 14.34375 0 L 14.34375 -9.0625 C 14.34375 -10.507812 14.054688 -11.613281 13.484375 -12.375 C 12.910156 -13.144531 12 -13.53125 10.75 -13.53125 C 9.539062 -13.53125 8.535156 -13.097656 7.734375 -12.234375 C 6.929688 -11.378906 6.53125 -10.1875 6.53125 -8.65625 L 6.53125 0 Z M 2.203125 0 "/></g></g></g><g fill="#ff5711" fill-opacity="1"><g transform="translate(191.176072, 232.613671)"><g><path d="M 2.203125 0 L 2.203125 -16.78125 L 6.015625 -16.78125 L 6.359375 -13.9375 C 6.878906 -14.925781 7.628906 -15.710938 8.609375 -16.296875 C 9.585938 -16.890625 10.742188 -17.1875 12.078125 -17.1875 C 14.148438 -17.1875 15.757812 -16.53125 16.90625 -15.21875 C 18.0625 -13.914062 18.640625 -12 18.640625 -9.46875 L 18.640625 0 L 14.3125 0 L 14.3125 -9.0625 C 14.3125 -10.507812 14.015625 -11.613281 13.421875 -12.375 C 12.835938 -13.144531 11.925781 -13.53125 10.6875 -13.53125 C 9.46875 -13.53125 8.46875 -13.097656 7.6875 -12.234375 C 6.914062 -11.378906 6.53125 -10.1875 6.53125 -8.65625 L 6.53125 0 Z M 2.203125 0 "/></g></g></g><g fill="#ff5711" fill-opacity="1"><g transform="translate(211.740711, 232.613671)"><g><path d="M 10.25 0.40625 C 8.625 0.40625 7.160156 0.0351562 5.859375 -0.703125 C 4.566406 -1.453125 3.539062 -2.484375 2.78125 -3.796875 C 2.03125 -5.117188 1.65625 -6.648438 1.65625 -8.390625 C 1.65625 -10.128906 2.035156 -11.65625 2.796875 -12.96875 C 3.566406 -14.289062 4.597656 -15.320312 5.890625 -16.0625 C 7.191406 -16.8125 8.65625 -17.1875 10.28125 -17.1875 C 11.882812 -17.1875 13.332031 -16.8125 14.625 -16.0625 C 15.925781 -15.320312 16.953125 -14.289062 17.703125 -12.96875 C 18.460938 -11.65625 18.84375 -10.128906 18.84375 -8.390625 C 18.84375 -6.648438 18.460938 -5.117188 17.703125 -3.796875 C 16.953125 -2.484375 15.921875 -1.453125 14.609375 -0.703125 C 13.304688 0.0351562 11.851562 0.40625 10.25 0.40625 Z M 10.25 -3.34375 C 11.375 -3.34375 12.351562 -3.765625 13.1875 -4.609375 C 14.019531 -5.460938 14.4375 -6.722656 14.4375 -8.390625 C 14.4375 -10.054688 14.019531 -11.3125 13.1875 -12.15625 C 12.351562 -13.007812 11.382812 -13.4375 10.28125 -13.4375 C 9.132812 -13.4375 8.148438 -13.007812 7.328125 -12.15625 C 6.503906 -11.3125 6.09375 -10.054688 6.09375 -8.390625 C 6.09375 -6.722656 6.503906 -5.460938 7.328125 -4.609375 C 8.148438 -3.765625 9.125 -3.34375 10.25 -3.34375 Z M 10.25 -3.34375 "/></g></g></g><g fill="#ff5711" fill-opacity="1"><g transform="translate(232.237703, 232.613671)"><g><path d="M 2.203125 0 L 2.203125 -24.359375 L 6.53125 -24.359375 L 6.53125 0 Z M 2.203125 0 "/></g></g></g><g fill="#ff5711" fill-opacity="1"><g transform="translate(240.997975, 232.613671)"><g><path d="M 10.25 0.40625 C 8.625 0.40625 7.160156 0.0351562 5.859375 -0.703125 C 4.566406 -1.453125 3.539062 -2.484375 2.78125 -3.796875 C 2.03125 -5.117188 1.65625 -6.648438 1.65625 -8.390625 C 1.65625 -10.128906 2.035156 -11.65625 2.796875 -12.96875 C 3.566406 -14.289062 4.597656 -15.320312 5.890625 -16.0625 C 7.191406 -16.8125 8.65625 -17.1875 10.28125 -17.1875 C 11.882812 -17.1875 13.332031 -16.8125 14.625 -16.0625 C 15.925781 -15.320312 16.953125 -14.289062 17.703125 -12.96875 C 18.460938 -11.65625 18.84375 -10.128906 18.84375 -8.390625 C 18.84375 -6.648438 18.460938 -5.117188 17.703125 -3.796875 C 16.953125 -2.484375 15.921875 -1.453125 14.609375 -0.703125 C 13.304688 0.0351562 11.851562 0.40625 10.25 0.40625 Z M 10.25 -3.34375 C 11.375 -3.34375 12.351562 -3.765625 13.1875 -4.609375 C 14.019531 -5.460938 14.4375 -6.722656 14.4375 -8.390625 C 14.4375 -10.054688 14.019531 -11.3125 13.1875 -12.15625 C 12.351562 -13.007812 11.382812 -13.4375 10.28125 -13.4375 C 9.132812 -13.4375 8.148438 -13.007812 7.328125 -12.15625 C 6.503906 -11.3125 6.09375 -10.054688 6.09375 -8.390625 C 6.09375 -6.722656 6.503906 -5.460938 7.328125 -4.609375 C 8.148438 -3.765625 9.125 -3.34375 10.25 -3.34375 Z M 10.25 -3.34375 "/></g></g></g><g fill="#ff5711" fill-opacity="1"><g transform="translate(261.494961, 232.613671)"><g><path d="M 9.296875 -5 C 8.484375 -5 7.726562 -5.09375 7.03125 -5.28125 L 5.78125 -4.03125 C 6.164062 -3.820312 6.6875 -3.648438 7.34375 -3.515625 C 8 -3.378906 9.054688 -3.242188 10.515625 -3.109375 C 12.753906 -2.910156 14.378906 -2.378906 15.390625 -1.515625 C 16.398438 -0.660156 16.90625 0.519531 16.90625 2.03125 C 16.90625 3.019531 16.632812 3.957031 16.09375 4.84375 C 15.5625 5.738281 14.726562 6.460938 13.59375 7.015625 C 12.46875 7.566406 11.023438 7.84375 9.265625 7.84375 C 6.878906 7.84375 4.953125 7.394531 3.484375 6.5 C 2.015625 5.613281 1.28125 4.28125 1.28125 2.5 C 1.28125 0.988281 2.015625 -0.316406 3.484375 -1.421875 C 3.035156 -1.617188 2.644531 -1.832031 2.3125 -2.0625 C 1.988281 -2.289062 1.703125 -2.53125 1.453125 -2.78125 L 1.453125 -3.546875 L 4.390625 -6.671875 C 3.085938 -7.816406 2.4375 -9.289062 2.4375 -11.09375 C 2.4375 -12.21875 2.710938 -13.242188 3.265625 -14.171875 C 3.816406 -15.097656 4.597656 -15.832031 5.609375 -16.375 C 6.628906 -16.914062 7.859375 -17.1875 9.296875 -17.1875 C 10.242188 -17.1875 11.125 -17.050781 11.9375 -16.78125 L 18.296875 -16.78125 L 18.296875 -14.140625 L 15.421875 -13.9375 C 15.878906 -13.082031 16.109375 -12.132812 16.109375 -11.09375 C 16.109375 -9.96875 15.835938 -8.941406 15.296875 -8.015625 C 14.753906 -7.085938 13.96875 -6.351562 12.9375 -5.8125 C 11.914062 -5.269531 10.703125 -5 9.296875 -5 Z M 9.296875 -8.328125 C 10.179688 -8.328125 10.910156 -8.5625 11.484375 -9.03125 C 12.054688 -9.507812 12.34375 -10.1875 12.34375 -11.0625 C 12.34375 -11.9375 12.054688 -12.609375 11.484375 -13.078125 C 10.910156 -13.554688 10.179688 -13.796875 9.296875 -13.796875 C 8.378906 -13.796875 7.632812 -13.554688 7.0625 -13.078125 C 6.5 -12.609375 6.21875 -11.9375 6.21875 -11.0625 C 6.21875 -10.1875 6.5 -9.507812 7.0625 -9.03125 C 7.632812 -8.5625 8.378906 -8.328125 9.296875 -8.328125 Z M 5.25 2.0625 C 5.25 2.894531 5.632812 3.519531 6.40625 3.9375 C 7.1875 4.351562 8.140625 4.5625 9.265625 4.5625 C 10.347656 4.5625 11.226562 4.34375 11.90625 3.90625 C 12.582031 3.46875 12.921875 2.875 12.921875 2.125 C 12.921875 1.519531 12.703125 1.015625 12.265625 0.609375 C 11.828125 0.203125 10.953125 -0.046875 9.640625 -0.140625 C 8.710938 -0.203125 7.851562 -0.300781 7.0625 -0.4375 C 6.414062 -0.0820312 5.953125 0.304688 5.671875 0.734375 C 5.390625 1.171875 5.25 1.613281 5.25 2.0625 Z M 5.25 2.0625 "/></g></g></g><g fill="#ff5711" fill-opacity="1"><g transform="translate(280.740494, 232.613671)"><g><path d="M 4.53125 -19.390625 C 3.738281 -19.390625 3.085938 -19.625 2.578125 -20.09375 C 2.078125 -20.5625 1.828125 -21.160156 1.828125 -21.890625 C 1.828125 -22.609375 2.078125 -23.195312 2.578125 -23.65625 C 3.085938 -24.125 3.738281 -24.359375 4.53125 -24.359375 C 5.320312 -24.359375 5.96875 -24.125 6.46875 -23.65625 C 6.976562 -23.195312 7.234375 -22.609375 7.234375 -21.890625 C 7.234375 -21.160156 6.976562 -20.5625 6.46875 -20.09375 C 5.96875 -19.625 5.320312 -19.390625 4.53125 -19.390625 Z M 2.375 0 L 2.375 -16.78125 L 6.703125 -16.78125 L 6.703125 0 Z M 2.375 0 "/></g></g></g><g fill="#ff5711" fill-opacity="1"><g transform="translate(289.771351, 232.613671)"><g><path d="M 10.34375 0.40625 C 8.65625 0.40625 7.15625 0.046875 5.84375 -0.671875 C 4.539062 -1.398438 3.515625 -2.414062 2.765625 -3.71875 C 2.023438 -5.03125 1.65625 -6.539062 1.65625 -8.25 C 1.65625 -9.988281 2.019531 -11.535156 2.75 -12.890625 C 3.488281 -14.242188 4.503906 -15.296875 5.796875 -16.046875 C 7.097656 -16.804688 8.628906 -17.1875 10.390625 -17.1875 C 12.035156 -17.1875 13.488281 -16.820312 14.75 -16.09375 C 16.007812 -15.375 16.992188 -14.390625 17.703125 -13.140625 C 18.421875 -11.890625 18.78125 -10.5 18.78125 -8.96875 C 18.78125 -8.71875 18.769531 -8.457031 18.75 -8.1875 C 18.738281 -7.914062 18.722656 -7.632812 18.703125 -7.34375 L 5.953125 -7.34375 C 6.046875 -6.03125 6.503906 -5 7.328125 -4.25 C 8.148438 -3.507812 9.144531 -3.140625 10.3125 -3.140625 C 11.195312 -3.140625 11.9375 -3.335938 12.53125 -3.734375 C 13.132812 -4.128906 13.582031 -4.644531 13.875 -5.28125 L 18.265625 -5.28125 C 17.953125 -4.21875 17.425781 -3.25 16.6875 -2.375 C 15.957031 -1.507812 15.054688 -0.828125 13.984375 -0.328125 C 12.910156 0.160156 11.695312 0.40625 10.34375 0.40625 Z M 10.390625 -13.671875 C 9.328125 -13.671875 8.390625 -13.367188 7.578125 -12.765625 C 6.765625 -12.171875 6.242188 -11.265625 6.015625 -10.046875 L 14.375 -10.046875 C 14.3125 -11.148438 13.90625 -12.03125 13.15625 -12.6875 C 12.414062 -13.34375 11.492188 -13.671875 10.390625 -13.671875 Z M 10.390625 -13.671875 "/></g></g></g><g fill="#ff5711" fill-opacity="1"><g transform="translate(309.997751, 232.613671)"><g><path d="M 9.140625 0.40625 C 7.648438 0.40625 6.335938 0.164062 5.203125 -0.3125 C 4.078125 -0.800781 3.175781 -1.472656 2.5 -2.328125 C 1.820312 -3.191406 1.414062 -4.1875 1.28125 -5.3125 L 5.65625 -5.3125 C 5.789062 -4.65625 6.15625 -4.09375 6.75 -3.625 C 7.34375 -3.164062 8.113281 -2.9375 9.0625 -2.9375 C 10.007812 -2.9375 10.703125 -3.128906 11.140625 -3.515625 C 11.585938 -3.898438 11.8125 -4.34375 11.8125 -4.84375 C 11.8125 -5.5625 11.492188 -6.050781 10.859375 -6.3125 C 10.222656 -6.570312 9.34375 -6.820312 8.21875 -7.0625 C 7.5 -7.226562 6.765625 -7.421875 6.015625 -7.640625 C 5.273438 -7.867188 4.59375 -8.15625 3.96875 -8.5 C 3.351562 -8.851562 2.851562 -9.304688 2.46875 -9.859375 C 2.082031 -10.410156 1.890625 -11.09375 1.890625 -11.90625 C 1.890625 -13.394531 2.484375 -14.644531 3.671875 -15.65625 C 4.859375 -16.675781 6.519531 -17.1875 8.65625 -17.1875 C 10.644531 -17.1875 12.226562 -16.722656 13.40625 -15.796875 C 14.59375 -14.867188 15.300781 -13.59375 15.53125 -11.96875 L 11.4375 -11.96875 C 11.1875 -13.207031 10.25 -13.828125 8.625 -13.828125 C 7.8125 -13.828125 7.1875 -13.671875 6.75 -13.359375 C 6.3125 -13.046875 6.09375 -12.648438 6.09375 -12.171875 C 6.09375 -11.679688 6.414062 -11.285156 7.0625 -10.984375 C 7.71875 -10.691406 8.585938 -10.425781 9.671875 -10.1875 C 10.847656 -9.914062 11.925781 -9.613281 12.90625 -9.28125 C 13.882812 -8.957031 14.664062 -8.472656 15.25 -7.828125 C 15.84375 -7.179688 16.140625 -6.265625 16.140625 -5.078125 C 16.160156 -4.035156 15.890625 -3.097656 15.328125 -2.265625 C 14.765625 -1.429688 13.953125 -0.773438 12.890625 -0.296875 C 11.828125 0.171875 10.578125 0.40625 9.140625 0.40625 Z M 9.140625 0.40625 "/></g></g></g></svg>