<?xml version="1.0" encoding="utf-8"?>
<!-- Generator: Adobe Illustrator 28.1.0, SVG Export Plug-In . SVG Version: 6.00 Build 0)  -->
<svg version="1.1" id="Ebene_1" xmlns="http://www.w3.org/2000/svg" xmlns:xlink="http://www.w3.org/1999/xlink" x="0px" y="0px"
	 viewBox="0 0 805.6 259" style="enable-background:new 0 0 805.6 259;" xml:space="preserve">
<style type="text/css">
	.st0{fill:none;}
	.st1{fill:#F15A24;}
	.st2{fill:none;stroke:#F15A24;stroke-width:14;stroke-miterlimit:10;}
</style>
<g>
	<rect x="101.7" y="2.7" class="st0" width="778.8" height="725.8"/>
	<path class="st1" d="M108,68.9V4.5h26.8c4.5,0,8.2,0.7,11.3,2.1c3.1,1.4,5.4,3.4,7,5.8c1.6,2.5,2.4,5.4,2.4,8.7
		c0,3.2-0.7,5.9-2.1,8.1c-1.4,2.2-3.3,3.9-5.6,5.1c-2.3,1.2-4.8,1.9-7.5,2.1l1.5-1c2.9,0.1,5.6,0.9,7.9,2.4c2.3,1.5,4.1,3.4,5.4,5.8
		c1.3,2.4,2,5,2,7.8c0,3.4-0.8,6.5-2.5,9.2c-1.7,2.7-4.1,4.7-7.2,6.2c-3.2,1.5-7,2.2-11.5,2.2H108z M120.9,31.3h11.7
		c3.2,0,5.6-0.7,7.3-2.2c1.7-1.4,2.5-3.5,2.5-6.1c0-2.6-0.8-4.6-2.5-6c-1.7-1.4-4.1-2.2-7.4-2.2h-11.6V31.3z M120.9,58.4h12.7
		c3.3,0,5.8-0.8,7.6-2.3c1.8-1.5,2.7-3.6,2.7-6.4c0-2.8-0.9-4.9-2.8-6.5c-1.9-1.6-4.4-2.4-7.7-2.4h-12.5V58.4z"/>
	<path class="st1" d="M167,68.9V4.5h12.9v64.4H167z"/>
	<path class="st1" d="M192.4,68.9V4.5h12.9v25.1l22.9-25.1h15.9L220.3,30l24.4,38.9h-15.6l-17.9-29l-5.9,6.4v22.5H192.4z"/>
	<path class="st1" d="M253.1,68.9V4.5h42.6v10.4H266v16.3h27v10h-27v17.3h29.7v10.4H253.1z"/>
	<path class="st1" d="M135.3,162.9V98.5h12.9v54.4h28.1v10H135.3z"/>
	<path class="st1" d="M187,162.9V98.5h42.6v10.4h-29.7v16.3h27v10h-27v17.3h29.7v10.4H187z"/>
	<path class="st1" d="M236.5,162.9L260,98.5h14.7l23.5,64.4h-13.7l-17.2-49.8L250,162.9H236.5z M246.8,148.5l3.4-10h33.1l3.3,10
		H246.8z"/>
	<path class="st1" d="M328.7,164c-4.6,0-8.7-0.8-12.4-2.4c-3.7-1.6-6.6-3.9-8.7-7c-2.1-3.1-3.2-6.8-3.4-11.1h13.6
		c0.1,1.8,0.6,3.5,1.5,5c0.9,1.5,2.1,2.6,3.7,3.5c1.6,0.9,3.4,1.3,5.7,1.3c1.8,0,3.5-0.3,4.8-0.9c1.4-0.6,2.5-1.5,3.3-2.6
		c0.8-1.1,1.2-2.5,1.2-4c0-1.7-0.4-3.2-1.3-4.4c-0.9-1.2-2.1-2.2-3.6-3.1c-1.5-0.9-3.3-1.6-5.4-2.3c-2.1-0.7-4.2-1.4-6.4-2.2
		c-5.1-1.7-9-3.9-11.6-6.7c-2.7-2.8-4-6.5-4-11.1c0-3.9,0.9-7.3,2.8-10c1.9-2.8,4.5-4.9,7.8-6.3c3.3-1.5,7.1-2.2,11.4-2.2
		c4.4,0,8.3,0.8,11.6,2.3c3.3,1.5,5.9,3.7,7.9,6.5c1.9,2.8,3,6.2,3.1,10h-13.9c0-1.4-0.4-2.7-1.1-3.9c-0.8-1.2-1.8-2.2-3.1-2.9
		s-2.8-1.1-4.5-1.1c-1.6-0.1-3,0.2-4.3,0.7c-1.3,0.5-2.3,1.3-3,2.3c-0.7,1-1.1,2.3-1.1,3.8c0,1.5,0.4,2.8,1.1,3.8
		c0.7,1,1.8,1.9,3.1,2.6c1.3,0.7,2.9,1.4,4.7,2.1c1.8,0.6,3.7,1.3,5.8,2c3.2,1.1,6.2,2.4,8.9,3.9c2.7,1.5,4.8,3.4,6.4,5.8
		c1.6,2.4,2.4,5.6,2.4,9.5c0,3.4-0.9,6.6-2.6,9.5c-1.7,2.9-4.3,5.3-7.7,7S333.7,164,328.7,164z"/>
	<path class="st1" d="M362.2,162.9V98.5h12.9v64.4H362.2z"/>
	<path class="st1" d="M387.6,162.9V98.5h12.9l29.2,43.7V98.5h12.9v64.4h-12.9l-29.2-43.6v43.6H387.6z"/>
	<path class="st1" d="M483.3,164c-6.1,0-11.4-1.4-16-4.1c-4.6-2.7-8.1-6.6-10.6-11.5c-2.5-4.9-3.8-10.7-3.8-17.2
		c0-6.6,1.3-12.5,3.9-17.5c2.6-5.1,6.3-9,11.2-11.9c4.8-2.9,10.6-4.3,17.4-4.3c7.6,0,13.9,1.8,19,5.5c5,3.6,8.3,8.7,9.8,15.1h-14.4
		c-0.9-2.8-2.6-4.9-5-6.4c-2.4-1.5-5.6-2.3-9.4-2.3c-4.1,0-7.6,0.9-10.5,2.7c-2.9,1.8-5.1,4.3-6.5,7.6c-1.5,3.3-2.2,7.2-2.2,11.7
		c0,4.5,0.7,8.4,2.2,11.6c1.5,3.2,3.6,5.6,6.4,7.3c2.8,1.7,6.1,2.5,10,2.5c5.5,0,9.7-1.5,12.5-4.5c2.8-3,4.5-6.8,5.2-11.4h-15.5
		v-9.6h28.4v35.7h-11.9l-1-7.9c-1.3,1.9-2.8,3.5-4.6,4.9c-1.8,1.4-3.8,2.4-6.2,3.1C489.2,163.7,486.4,164,483.3,164z"/>
	<path class="st1" d="M123,256.9v-54h-18.8v-10.4h50.3v10.4h-18.8v54H123z"/>
	<path class="st1" d="M163.3,256.9v-64.4h42.6v10.4h-29.7v16.3h27v10h-27v17.3h29.7v10.4H163.3z"/>
	<path class="st1" d="M246,258c-6.4,0-11.9-1.4-16.6-4.2c-4.7-2.8-8.2-6.7-10.7-11.7c-2.5-5-3.7-10.8-3.7-17.3
		c0-6.6,1.2-12.4,3.7-17.4c2.5-5,6.1-9,10.7-11.8c4.7-2.8,10.2-4.2,16.6-4.2c7.9,0,14.3,2,19.3,5.9c5,3.9,8.2,9.4,9.4,16.6h-14.2
		c-0.7-3.4-2.3-6.1-4.8-8c-2.5-1.9-5.8-2.8-9.8-2.8c-3.7,0-6.9,0.9-9.6,2.6c-2.6,1.7-4.7,4.2-6.1,7.5c-1.4,3.3-2.1,7.1-2.1,11.6
		c0,4.5,0.7,8.3,2.1,11.5c1.4,3.2,3.4,5.7,6.1,7.5c2.6,1.7,5.8,2.6,9.6,2.6c4,0,7.3-0.9,9.8-2.6c2.5-1.7,4.1-4.2,4.9-7.3h14.2
		c-1.2,6.7-4.4,11.9-9.4,15.8C260.3,256.1,253.9,258,246,258z"/>
	<path class="st1" d="M285.2,256.9v-64.4h12.9v64.4H285.2z M296.3,229.2v-10.4h31.5v10.4H296.3z M325.7,256.9v-64.4h12.9v64.4H325.7
		z"/>
	<path class="st1" d="M351.2,256.9v-64.4h12.9l29.2,43.7v-43.7h12.9v64.4h-12.9l-29.2-43.6v43.6H351.2z"/>
	<path class="st1" d="M448.3,258c-6.3,0-11.8-1.4-16.5-4.2c-4.8-2.8-8.5-6.7-11.2-11.7c-2.7-5-4.1-10.8-4.1-17.3
		c0-6.6,1.4-12.3,4.1-17.3c2.7-5,6.5-8.9,11.2-11.7c4.8-2.8,10.3-4.2,16.5-4.2c6.3,0,11.9,1.4,16.7,4.2c4.8,2.8,8.6,6.7,11.2,11.7
		c2.7,5,4,10.8,4,17.3c0,6.6-1.3,12.3-4,17.3c-2.7,5-6.4,8.9-11.2,11.7C460.2,256.6,454.6,258,448.3,258z M448.3,246.4
		c3.9,0,7.2-0.9,10-2.7c2.8-1.8,5-4.3,6.5-7.5c1.6-3.2,2.3-7.1,2.3-11.5c0-4.5-0.8-8.3-2.3-11.5c-1.6-3.2-3.7-5.7-6.5-7.5
		c-2.8-1.8-6.1-2.7-10-2.7c-3.7,0-7,0.9-9.8,2.7c-2.8,1.8-5,4.3-6.5,7.5c-1.5,3.2-2.3,7.1-2.3,11.5c0,4.5,0.8,8.3,2.3,11.5
		c1.5,3.2,3.7,5.7,6.5,7.5C441.3,245.5,444.6,246.4,448.3,246.4z"/>
	<path class="st1" d="M490.8,256.9v-64.4h12.9v54.4h28.1v10H490.8z"/>
	<path class="st1" d="M566.5,258c-6.3,0-11.8-1.4-16.5-4.2c-4.8-2.8-8.5-6.7-11.2-11.7c-2.7-5-4.1-10.8-4.1-17.3
		c0-6.6,1.4-12.3,4.1-17.3c2.7-5,6.5-8.9,11.2-11.7c4.8-2.8,10.3-4.2,16.5-4.2c6.3,0,11.9,1.4,16.7,4.2c4.8,2.8,8.6,6.7,11.2,11.7
		c2.7,5,4,10.8,4,17.3c0,6.6-1.3,12.3-4,17.3c-2.7,5-6.4,8.9-11.2,11.7C578.4,256.6,572.9,258,566.5,258z M566.5,246.4
		c3.9,0,7.2-0.9,10-2.7c2.8-1.8,5-4.3,6.5-7.5c1.6-3.2,2.3-7.1,2.3-11.5c0-4.5-0.8-8.3-2.3-11.5c-1.6-3.2-3.7-5.7-6.5-7.5
		c-2.8-1.8-6.1-2.7-10-2.7c-3.7,0-7,0.9-9.8,2.7c-2.8,1.8-5,4.3-6.5,7.5c-1.5,3.2-2.3,7.1-2.3,11.5c0,4.5,0.8,8.3,2.3,11.5
		c1.5,3.2,3.7,5.7,6.5,7.5C559.5,245.5,562.8,246.4,566.5,246.4z"/>
	<path class="st1" d="M637.3,258c-6.1,0-11.4-1.4-16-4.1c-4.6-2.7-8.1-6.6-10.6-11.5c-2.5-4.9-3.8-10.7-3.8-17.2
		c0-6.6,1.3-12.5,3.9-17.5c2.6-5.1,6.3-9,11.2-11.9c4.8-2.9,10.6-4.3,17.4-4.3c7.6,0,13.9,1.8,19,5.5c5,3.6,8.3,8.7,9.8,15.1h-14.4
		c-0.9-2.8-2.6-4.9-5-6.4c-2.4-1.5-5.6-2.3-9.4-2.3c-4.1,0-7.6,0.9-10.5,2.7c-2.9,1.8-5.1,4.3-6.5,7.6c-1.5,3.3-2.2,7.2-2.2,11.7
		c0,4.5,0.7,8.4,2.2,11.6c1.5,3.2,3.6,5.6,6.4,7.3c2.8,1.7,6.1,2.5,10,2.5c5.5,0,9.7-1.5,12.5-4.5c2.8-3,4.5-6.8,5.2-11.4h-15.5
		v-9.6h28.4v35.7h-11.9l-1-7.9c-1.3,1.9-2.8,3.5-4.6,4.9c-1.8,1.4-3.8,2.4-6.2,3.1C643.2,257.7,640.4,258,637.3,258z"/>
	<path class="st1" d="M680.8,256.9v-64.4h12.9v64.4H680.8z"/>
	<path class="st1" d="M706.2,256.9v-64.4h42.6v10.4h-29.7v16.3h27v10h-27v17.3h29.7v10.4H706.2z"/>
	<path class="st1" d="M782.3,258c-4.6,0-8.7-0.8-12.4-2.4c-3.7-1.6-6.6-3.9-8.7-7c-2.1-3.1-3.2-6.8-3.4-11.1h13.6
		c0.1,1.8,0.6,3.5,1.5,5c0.9,1.5,2.1,2.6,3.7,3.5c1.6,0.9,3.5,1.3,5.7,1.3c1.8,0,3.4-0.3,4.8-0.9c1.4-0.6,2.5-1.5,3.3-2.6
		c0.8-1.1,1.2-2.5,1.2-4c0-1.7-0.4-3.2-1.3-4.4c-0.9-1.2-2.1-2.2-3.6-3.1c-1.5-0.9-3.3-1.6-5.4-2.3c-2.1-0.7-4.2-1.4-6.4-2.2
		c-5.1-1.7-9-3.9-11.6-6.7c-2.7-2.8-4-6.5-4-11.1c0-3.9,0.9-7.3,2.8-10c1.9-2.8,4.5-4.9,7.8-6.3c3.3-1.5,7.1-2.2,11.4-2.2
		c4.4,0,8.3,0.8,11.6,2.3c3.3,1.5,5.9,3.7,7.9,6.5c1.9,2.8,3,6.2,3.1,10h-13.9c0-1.4-0.4-2.7-1.2-3.9c-0.8-1.2-1.8-2.2-3.1-2.9
		s-2.8-1.1-4.5-1.1c-1.6-0.1-3,0.2-4.3,0.7c-1.3,0.5-2.3,1.3-3,2.3c-0.7,1-1.1,2.3-1.1,3.8c0,1.5,0.4,2.8,1.1,3.8
		c0.7,1,1.8,1.9,3.1,2.6c1.3,0.7,2.9,1.4,4.7,2.1c1.8,0.6,3.7,1.3,5.8,2c3.3,1.1,6.2,2.4,8.9,3.9c2.7,1.5,4.8,3.4,6.4,5.8
		c1.6,2.4,2.4,5.6,2.4,9.5c0,3.4-0.9,6.6-2.6,9.5c-1.7,2.9-4.3,5.3-7.7,7S787.2,258,782.3,258z"/>
</g>
<circle class="st2" cx="33.7" cy="32.6" r="22.9"/>
<line class="st2" x1="44.3" y1="56.3" x2="62.5" y2="104.5"/>
<circle class="st2" cx="69.7" cy="128.2" r="22.9"/>
<circle class="st2" cx="39" cy="227.7" r="22.9"/>
<line class="st2" x1="66.5" y1="148.6" x2="46.6" y2="209.2"/>
</svg>
