<?xml version="1.0" encoding="utf-8"?>
<!-- Generator: Adobe Illustrator 28.1.0, SVG Export Plug-In . SVG Version: 6.00 Build 0)  -->
<svg version="1.1" id="Ebene_1" xmlns="http://www.w3.org/2000/svg" xmlns:xlink="http://www.w3.org/1999/xlink" x="0px" y="0px"
	 viewBox="0 0 740 245" style="enable-background:new 0 0 740 245;" xml:space="preserve">
<style type="text/css">
	.st0{fill:none;}
	.st1{fill:#F15A24;}
	.st2{fill:none;stroke:#F15A24;stroke-width:13.1753;stroke-miterlimit:10;}
</style>
<g>
	<rect x="101" class="st0" width="687" height="319"/>
	<path class="st1" d="M107.5,67.7V1.9h12.7v55.9H149v9.9H107.5z"/>
	<path class="st1" d="M158.8,67.7V1.9h43.3v10.2h-30.6v17.2h27.8v9.9h-27.8v18.2h30.6v10.2H158.8z"/>
	<path class="st1" d="M208.2,67.7l24-65.8h14.4l24,65.8H257l-17.8-51.3l-17.9,51.3H208.2z M218.7,52.7l3.4-9.9h33.5l3.3,9.9H218.7z"
		/>
	<path class="st1" d="M300.7,68.8c-4.8,0-9-0.8-12.7-2.4s-6.7-4-8.8-7.1c-2.1-3.1-3.3-6.9-3.4-11.4h13.4c0.1,1.9,0.6,3.7,1.5,5.3
		c0.9,1.6,2.2,2.8,3.9,3.7c1.7,0.9,3.7,1.4,6,1.4c2,0,3.7-0.3,5.2-1c1.5-0.7,2.6-1.6,3.5-2.8c0.8-1.2,1.3-2.6,1.3-4.2
		c0-1.9-0.5-3.4-1.4-4.7c-0.9-1.3-2.2-2.3-3.8-3.2c-1.6-0.9-3.4-1.7-5.5-2.4c-2.1-0.7-4.3-1.5-6.5-2.2c-5.3-1.8-9.2-4-11.9-6.9
		c-2.7-2.8-4-6.5-4-11.2c0-3.9,0.9-7.3,2.8-10.2s4.5-5,7.9-6.5c3.4-1.5,7.2-2.3,11.6-2.3c4.4,0,8.3,0.8,11.7,2.3
		c3.4,1.5,6,3.7,8,6.6c2,2.9,3,6.3,3.1,10.2h-13.6c-0.1-1.4-0.5-2.8-1.3-4.1c-0.8-1.3-1.9-2.3-3.2-3.1c-1.4-0.8-3-1.2-4.9-1.2
		c-1.6-0.1-3.1,0.2-4.5,0.8c-1.3,0.6-2.4,1.4-3.1,2.5c-0.8,1.1-1.1,2.5-1.1,4.1c0,1.6,0.4,2.9,1.1,3.9c0.8,1.1,1.8,2,3.2,2.8
		c1.4,0.8,3,1.5,4.9,2.2c1.9,0.7,3.9,1.3,6.1,2c3.3,1.1,6.3,2.5,9.1,4c2.7,1.5,4.9,3.5,6.5,6c1.6,2.4,2.4,5.7,2.4,9.7
		c0,3.4-0.9,6.6-2.7,9.6c-1.8,2.9-4.4,5.3-7.8,7.1C310,67.9,305.7,68.8,300.7,68.8z"/>
	<path class="st1" d="M333.6,67.7V1.9h12.7v65.8H333.6z"/>
	<path class="st1" d="M358.1,67.7V1.9h12.7L401,47.3V1.9h12.7v65.8H401l-30.3-45.3v45.3H358.1z"/>
	<path class="st1" d="M454.3,68.8c-6.2,0-11.6-1.4-16.3-4.2c-4.7-2.8-8.3-6.7-10.9-11.8c-2.6-5-3.9-10.9-3.9-17.6
		c0-6.8,1.3-12.7,4-17.9c2.7-5.2,6.5-9.2,11.4-12.2c4.9-2.9,10.8-4.4,17.7-4.4c7.8,0,14.2,1.8,19.3,5.5c5.1,3.7,8.4,8.8,9.9,15.4
		h-14.2c-0.9-2.9-2.7-5.2-5.3-6.8c-2.6-1.7-5.9-2.5-9.9-2.5c-4.3,0-7.9,0.9-10.9,2.8c-3,1.9-5.2,4.5-6.8,7.9
		c-1.6,3.4-2.4,7.4-2.4,12.1c0,4.8,0.8,8.8,2.3,12.1c1.5,3.3,3.8,5.8,6.7,7.6c2.9,1.7,6.3,2.6,10.3,2.6c5.8,0,10.1-1.6,13.1-4.7
		c3-3.1,4.7-7.1,5.3-12.1h-16.2v-9.5h29v36.4h-11.7l-1-8.4c-1.4,2.1-3,3.8-4.8,5.2c-1.8,1.4-4,2.5-6.4,3.2
		C460.4,68.4,457.5,68.8,454.3,68.8z"/>
	<path class="st1" d="M124.1,153.7l24-65.8h14.4l24,65.8H173l-17.8-51.3l-17.9,51.3H124.1z M134.7,138.7l3.4-9.9h33.5l3.3,9.9H134.7
		z"/>
	<path class="st1" d="M219.4,154.8c-4.8,0-9.2-1-13.2-2.9c-3.9-1.9-7.1-4.9-9.4-8.7c-2.3-3.9-3.5-8.8-3.5-14.9V87.9h12.7v40.5
		c0,3.3,0.5,6,1.6,8.2c1.1,2.2,2.7,3.9,4.7,4.9c2,1.1,4.5,1.6,7.3,1.6c2.9,0,5.3-0.5,7.4-1.6c2-1.1,3.6-2.7,4.7-4.9
		c1.1-2.2,1.6-5,1.6-8.2V87.9H246v40.4c0,6-1.2,11-3.6,14.9c-2.4,3.9-5.6,6.8-9.6,8.7S224.3,154.8,219.4,154.8z"/>
	<path class="st1" d="M272.5,153.7V98.1h-19.2V87.9h51v10.2h-19.2v55.6H272.5z"/>
	<path class="st1" d="M342.5,154.8c-6.3,0-11.9-1.4-16.8-4.3c-4.9-2.9-8.7-6.9-11.5-12c-2.8-5.1-4.2-11-4.2-17.7
		c0-6.7,1.4-12.6,4.2-17.7c2.8-5.1,6.6-9.1,11.5-12c4.9-2.9,10.4-4.3,16.8-4.3c6.5,0,12.1,1.4,17.1,4.3c4.9,2.9,8.7,6.9,11.5,12
		c2.7,5.1,4.1,11,4.1,17.7c0,6.7-1.4,12.6-4.1,17.7s-6.5,9.1-11.5,12C354.6,153.4,348.9,154.8,342.5,154.8z M342.5,143.4
		c4.1,0,7.6-0.9,10.5-2.8c2.9-1.8,5.2-4.5,6.8-7.8c1.6-3.4,2.4-7.4,2.4-12c0-4.7-0.8-8.7-2.4-12.1c-1.6-3.4-3.9-5.9-6.8-7.8
		c-2.9-1.8-6.4-2.7-10.5-2.7c-3.9,0-7.3,0.9-10.2,2.7c-2.9,1.8-5.2,4.4-6.8,7.8c-1.6,3.4-2.4,7.4-2.4,12.1c0,4.6,0.8,8.6,2.4,12
		c1.6,3.4,3.9,6,6.8,7.8C335.2,142.5,338.6,143.4,342.5,143.4z"/>
	<path class="st1" d="M384.8,153.7V87.9h15.1l20,41l20-41h15.1v65.8h-12.7v-44.3l-17.5,35.1h-10l-17.5-35v44.2H384.8z"/>
	<path class="st1" d="M462.6,153.7l24-65.8H501l24,65.8h-13.4l-17.8-51.3l-17.9,51.3H462.6z M473.1,138.7l3.4-9.9H510l3.3,9.9H473.1
		z"/>
	<path class="st1" d="M547.8,153.7V98.1h-19.2V87.9h51v10.2h-19.2v55.6H547.8z"/>
	<path class="st1" d="M587.4,153.7V87.9h12.7v65.8H587.4z"/>
	<path class="st1" d="M642.1,154.8c-6.3,0-11.9-1.4-16.8-4.3c-4.9-2.9-8.7-6.9-11.5-12c-2.8-5.1-4.2-11-4.2-17.7
		c0-6.7,1.4-12.6,4.2-17.7c2.8-5.1,6.6-9.1,11.5-12c4.9-2.9,10.4-4.3,16.8-4.3c6.5,0,12.1,1.4,17.1,4.3c4.9,2.9,8.7,6.9,11.5,12
		c2.7,5.1,4.1,11,4.1,17.7c0,6.7-1.4,12.6-4.1,17.7c-2.7,5.1-6.5,9.1-11.5,12C654.3,153.4,648.6,154.8,642.1,154.8z M642.1,143.4
		c4.1,0,7.6-0.9,10.5-2.8c2.9-1.8,5.2-4.5,6.8-7.8c1.6-3.4,2.4-7.4,2.4-12c0-4.7-0.8-8.7-2.4-12.1c-1.6-3.4-3.9-5.9-6.8-7.8
		c-2.9-1.8-6.4-2.7-10.5-2.7c-3.9,0-7.3,0.9-10.2,2.7c-2.9,1.8-5.2,4.4-6.8,7.8c-1.6,3.4-2.4,7.4-2.4,12.1c0,4.6,0.8,8.6,2.4,12
		c1.6,3.4,3.9,6,6.8,7.8C634.9,142.5,638.3,143.4,642.1,143.4z"/>
	<path class="st1" d="M684.4,153.7V87.9h12.7l30.3,45.4V87.9h12.7v65.8h-12.7l-30.3-45.3v45.3H684.4z"/>
	<path class="st1" d="M107.5,239.7v-65.8H132c5.4,0,9.8,0.9,13.3,2.7c3.5,1.8,6.1,4.3,7.8,7.3c1.7,3.1,2.6,6.6,2.6,10.5
		c0,3.6-0.8,6.9-2.5,10c-1.7,3.1-4.3,5.6-7.7,7.6c-3.4,1.9-8,2.9-13.5,2.9h-11.8v24.7H107.5z M120.2,204.7h11.1
		c4.1,0,7.1-0.9,8.9-2.8c1.8-1.9,2.7-4.4,2.7-7.5c0-3.2-0.9-5.7-2.7-7.5c-1.8-1.8-4.7-2.7-8.9-2.7h-11.1V204.7z"/>
	<path class="st1" d="M164.1,239.7v-65.8h12.7v55.9h28.9v9.9H164.1z"/>
	<path class="st1" d="M211.1,239.7l24-65.8h14.4l24,65.8H260l-17.8-51.3l-17.9,51.3H211.1z M221.6,224.7l3.4-9.9h33.5l3.3,9.9H221.6
		z"/>
	<path class="st1" d="M296.2,239.7v-55.6h-19.2v-10.2h51v10.2h-19.2v55.6H296.2z"/>
	<path class="st1" d="M335.9,239.7v-65.8h42.9v10.2h-30.2v17.6h24.3v10h-24.3v28H335.9z"/>
	<path class="st1" d="M417.3,240.8c-6.3,0-11.9-1.4-16.8-4.3c-4.9-2.9-8.7-6.9-11.5-12c-2.8-5.1-4.2-11-4.2-17.7s1.4-12.6,4.2-17.7
		c2.8-5.1,6.6-9.1,11.5-12c4.9-2.9,10.4-4.3,16.8-4.3c6.5,0,12.1,1.4,17.1,4.3c4.9,2.9,8.7,6.9,11.5,12c2.7,5.1,4.1,11,4.1,17.7
		s-1.4,12.6-4.1,17.7c-2.7,5.1-6.5,9.1-11.5,12C429.4,239.4,423.8,240.8,417.3,240.8z M417.3,229.4c4.1,0,7.6-0.9,10.5-2.8
		c2.9-1.8,5.2-4.5,6.8-7.8c1.6-3.4,2.4-7.4,2.4-12c0-4.7-0.8-8.7-2.4-12.1c-1.6-3.4-3.9-5.9-6.8-7.8c-2.9-1.8-6.4-2.7-10.5-2.7
		c-3.9,0-7.3,0.9-10.2,2.7c-2.9,1.8-5.2,4.4-6.8,7.8c-1.6,3.4-2.4,7.4-2.4,12.1c0,4.6,0.8,8.6,2.4,12c1.6,3.4,3.9,6,6.8,7.8
		C410,228.5,413.4,229.4,417.3,229.4z"/>
	<path class="st1" d="M459.6,239.7v-65.8h24.6c5.3,0,9.6,0.9,13.1,2.7c3.5,1.8,6.1,4.2,7.8,7.3c1.7,3,2.5,6.4,2.5,10.1
		c0,3.5-0.8,6.8-2.5,9.8c-1.7,3-4.2,5.5-7.7,7.3c-3.5,1.8-7.9,2.8-13.4,2.8h-11.8v25.8H459.6z M472.3,204.7h11.1
		c3.9,0,6.7-0.9,8.6-2.8c1.8-1.9,2.7-4.4,2.7-7.4s-0.9-5.5-2.7-7.3s-4.7-2.7-8.6-2.7h-11.1V204.7z M493.7,239.7l-13.5-29h13.7
		l14.3,29H493.7z"/>
	<path class="st1" d="M517.8,239.7v-65.8h15.1l20,41l20-41h15.1v65.8h-12.7v-44.3l-17.5,35.1h-10l-17.5-35v44.2H517.8z"/>
</g>
<ellipse class="st2" cx="29.5" cy="29.6" rx="21.5" ry="21.6"/>
<line class="st2" x1="39.5" y1="51.9" x2="56.6" y2="97.3"/>
<ellipse class="st2" cx="63.4" cy="119.6" rx="21.5" ry="21.6"/>
<ellipse class="st2" cx="34.5" cy="213.4" rx="21.5" ry="21.6"/>
<line class="st2" x1="60.4" y1="138.9" x2="41.7" y2="195.9"/>
<g>
</g>
<g>
</g>
<g>
</g>
<g>
</g>
<g>
</g>
<g>
</g>
<g>
</g>
<g>
</g>
<g>
</g>
<g>
</g>
<g>
</g>
<g>
</g>
<g>
</g>
<g>
</g>
<g>
</g>
</svg>
